<svg xmlns="http://www.w3.org/2000/svg" xmlns:xlink="http://www.w3.org/1999/xlink" width="1004" zoomAndPan="magnify" viewBox="0 0 753 277.499997" height="370" preserveAspectRatio="xMidYMid meet" version="1.2"><defs/><g id="92e39d1550"><g style="fill:#424040;fill-opacity:1;"><g transform="translate(201.211342, 101.754062)"><path style="stroke:none" d="M 37.65625 -49.296875 C 37.65625 -49.296875 37.65625 -49.273438 37.65625 -49.234375 C 37.9375 -48.617188 37.785156 -48.113281 37.203125 -47.71875 C 36.617188 -47.320312 36.09375 -47.097656 35.625 -47.046875 L 45.859375 -47.96875 C 45.296875 -47.914062 44.640625 -48.21875 43.890625 -48.875 C 41.234375 -51.351562 38.1875 -53.222656 34.75 -54.484375 C 31.3125 -55.742188 27.695312 -56.1875 23.90625 -55.8125 C 20.257812 -55.488281 16.90625 -54.445312 13.84375 -52.6875 C 10.78125 -50.9375 8.160156 -48.679688 5.984375 -45.921875 C 3.816406 -43.171875 2.207031 -40.039062 1.15625 -36.53125 C 0.101562 -33.03125 -0.234375 -29.363281 0.140625 -25.53125 C 0.515625 -21.695312 1.53125 -18.15625 3.1875 -14.90625 C 4.851562 -11.65625 7.015625 -8.859375 9.671875 -6.515625 C 12.335938 -4.179688 15.328125 -2.453125 18.640625 -1.328125 C 21.960938 -0.210938 25.453125 0.179688 29.109375 -0.140625 C 32.566406 -0.460938 35.707031 -1.453125 38.53125 -3.109375 C 41.363281 -4.773438 43.476562 -6.753906 44.875 -9.046875 L 43.828125 -9.046875 C 42.847656 -7.453125 41.515625 -6.070312 39.828125 -4.90625 C 38.148438 -3.738281 36.351562 -2.800781 34.4375 -2.09375 C 32.519531 -1.394531 30.71875 -0.953125 29.03125 -0.765625 C 26.414062 -0.535156 23.878906 -1.015625 21.421875 -2.203125 C 18.960938 -3.398438 16.738281 -5.15625 14.75 -7.46875 C 12.769531 -9.78125 11.132812 -12.535156 9.84375 -15.734375 C 8.5625 -18.941406 7.734375 -22.414062 7.359375 -26.15625 C 7.035156 -29.894531 7.210938 -33.46875 7.890625 -36.875 C 8.566406 -40.289062 9.664062 -43.332031 11.1875 -46 C 12.707031 -48.664062 14.550781 -50.804688 16.71875 -52.421875 C 18.894531 -54.035156 21.316406 -54.9375 23.984375 -55.125 C 26.128906 -55.257812 28.132812 -55.066406 30 -54.546875 C 31.875 -54.035156 33.488281 -53.320312 34.84375 -52.40625 C 36.207031 -51.5 37.144531 -50.460938 37.65625 -49.296875 Z M 37.65625 -49.296875 "/></g></g><g style="fill:#424040;fill-opacity:1;"><g transform="translate(249.521187, 101.754062)"><path style="stroke:none" d="M 26.578125 -55.953125 C 22.929688 -55.953125 19.503906 -55.226562 16.296875 -53.78125 C 13.097656 -52.332031 10.28125 -50.320312 7.84375 -47.75 C 5.414062 -45.175781 3.507812 -42.207031 2.125 -38.84375 C 0.75 -35.476562 0.0625 -31.859375 0.0625 -27.984375 C 0.0625 -24.148438 0.75 -20.535156 2.125 -17.140625 C 3.507812 -13.753906 5.414062 -10.773438 7.84375 -8.203125 C 10.28125 -5.628906 13.097656 -3.617188 16.296875 -2.171875 C 19.503906 -0.722656 22.929688 0 26.578125 0 C 30.222656 0 33.644531 -0.722656 36.84375 -2.171875 C 40.050781 -3.617188 42.859375 -5.628906 45.265625 -8.203125 C 47.671875 -10.773438 49.5625 -13.753906 50.9375 -17.140625 C 52.320312 -20.535156 53.015625 -24.148438 53.015625 -27.984375 C 53.015625 -31.859375 52.320312 -35.476562 50.9375 -38.84375 C 49.5625 -42.207031 47.671875 -45.175781 45.265625 -47.75 C 42.859375 -50.320312 40.050781 -52.332031 36.84375 -53.78125 C 33.644531 -55.226562 30.222656 -55.953125 26.578125 -55.953125 Z M 26.578125 -55.1875 C 29.242188 -55.1875 31.734375 -54.484375 34.046875 -53.078125 C 36.359375 -51.679688 38.390625 -49.734375 40.140625 -47.234375 C 41.898438 -44.734375 43.269531 -41.832031 44.25 -38.53125 C 45.226562 -35.238281 45.71875 -31.695312 45.71875 -27.90625 C 45.71875 -24.164062 45.226562 -20.644531 44.25 -17.34375 C 43.269531 -14.050781 41.898438 -11.15625 40.140625 -8.65625 C 38.390625 -6.15625 36.359375 -4.203125 34.046875 -2.796875 C 31.734375 -1.398438 29.242188 -0.703125 26.578125 -0.703125 C 23.910156 -0.703125 21.421875 -1.398438 19.109375 -2.796875 C 16.796875 -4.203125 14.75 -6.15625 12.96875 -8.65625 C 11.195312 -11.15625 9.816406 -14.050781 8.828125 -17.34375 C 7.847656 -20.644531 7.359375 -24.164062 7.359375 -27.90625 C 7.359375 -31.695312 7.847656 -35.238281 8.828125 -38.53125 C 9.816406 -41.832031 11.195312 -44.734375 12.96875 -47.234375 C 14.75 -49.734375 16.796875 -51.679688 19.109375 -53.078125 C 21.421875 -54.484375 23.910156 -55.1875 26.578125 -55.1875 Z M 26.578125 -55.1875 "/></g></g><g style="fill:#424040;fill-opacity:1;"><g transform="translate(305.964479, 101.754062)"><path style="stroke:none" d="M 12.484375 0 C 11.785156 0 11.175781 -0.375 10.65625 -1.125 C 10.144531 -1.875 9.890625 -2.832031 9.890625 -4 L 9.890625 -20.890625 L 20.75 -20.890625 C 21.925781 -20.191406 22.882812 -19.117188 23.625 -17.671875 L 30.296875 -3.71875 C 30.804688 -2.59375 30.957031 -1.703125 30.75 -1.046875 C 30.539062 -0.390625 30.109375 -0.0625 29.453125 -0.0625 L 41.9375 -0.0625 C 41.1875 -0.0625 40.390625 -0.425781 39.546875 -1.15625 C 38.703125 -1.882812 38.003906 -2.832031 37.453125 -4 L 31 -17.390625 C 30.382812 -18.421875 29.878906 -19.257812 29.484375 -19.90625 C 29.085938 -20.5625 28.28125 -21.007812 27.0625 -21.25 C 30.34375 -21.757812 33.03125 -22.785156 35.125 -24.328125 C 37.226562 -25.867188 38.796875 -27.785156 39.828125 -30.078125 C 40.859375 -32.367188 41.375 -34.847656 41.375 -37.515625 C 41.414062 -40.878906 40.828125 -43.953125 39.609375 -46.734375 C 38.398438 -49.515625 36.4375 -51.734375 33.71875 -53.390625 C 31.007812 -55.054688 27.367188 -55.890625 22.796875 -55.890625 L 0 -55.890625 C 0.695312 -55.890625 1.289062 -55.550781 1.78125 -54.875 C 2.28125 -54.195312 2.550781 -53.320312 2.59375 -52.25 L 2.59375 -3.640625 C 2.550781 -2.566406 2.28125 -1.691406 1.78125 -1.015625 C 1.289062 -0.335938 0.695312 0 0 0 Z M 16.6875 -55.265625 C 19.769531 -55.265625 22.328125 -54.875 24.359375 -54.09375 C 26.398438 -53.320312 28.039062 -52.304688 29.28125 -51.046875 C 30.519531 -49.785156 31.453125 -48.441406 32.078125 -47.015625 C 32.710938 -45.585938 33.132812 -44.195312 33.34375 -42.84375 C 33.550781 -41.488281 33.644531 -40.320312 33.625 -39.34375 C 33.601562 -38.363281 33.59375 -37.734375 33.59375 -37.453125 C 33.59375 -36.929688 33.546875 -36.0625 33.453125 -34.84375 C 33.359375 -33.632812 33.066406 -32.28125 32.578125 -30.78125 C 32.085938 -29.289062 31.269531 -27.851562 30.125 -26.46875 C 28.976562 -25.09375 27.375 -23.9375 25.3125 -23 C 23.257812 -22.0625 20.617188 -21.570312 17.390625 -21.53125 L 9.890625 -21.53125 L 9.890625 -51.96875 C 9.890625 -53.414062 10.265625 -54.515625 11.015625 -55.265625 Z M 16.6875 -55.265625 "/></g></g><g style="fill:#424040;fill-opacity:1;"><g transform="translate(350.838647, 101.754062)"><path style="stroke:none" d="M 38.640625 -55.890625 L 0 -55.890625 C 0.65625 -55.890625 1.238281 -55.550781 1.75 -54.875 C 2.269531 -54.195312 2.550781 -53.320312 2.59375 -52.25 L 2.59375 -3.640625 C 2.550781 -2.566406 2.269531 -1.691406 1.75 -1.015625 C 1.238281 -0.335938 0.65625 0 0 0 L 38.703125 0 L 38.703125 -7.78125 C 38.703125 -7.78125 38.609375 -7.472656 38.421875 -6.859375 C 38.234375 -6.253906 37.753906 -5.53125 36.984375 -4.6875 C 36.210938 -3.851562 34.984375 -3.0625 33.296875 -2.3125 C 31.617188 -1.5625 29.265625 -1.023438 26.234375 -0.703125 L 10.9375 -0.703125 C 10.613281 -1.023438 10.34375 -1.46875 10.125 -2.03125 C 9.914062 -2.59375 9.8125 -3.222656 9.8125 -3.921875 L 9.8125 -27.984375 L 17.734375 -27.984375 C 19.648438 -27.648438 21.050781 -27.191406 21.9375 -26.609375 C 22.832031 -26.023438 23.40625 -25.5 23.65625 -25.03125 C 23.914062 -24.5625 24.046875 -24.328125 24.046875 -24.328125 L 24.046875 -32.25 C 24.046875 -32.25 23.914062 -32.015625 23.65625 -31.546875 C 23.40625 -31.085938 22.832031 -30.566406 21.9375 -29.984375 C 21.050781 -29.398438 19.648438 -28.941406 17.734375 -28.609375 L 9.8125 -28.609375 L 9.8125 -51.890625 C 9.8125 -53.335938 10.210938 -54.460938 11.015625 -55.265625 L 26.15625 -55.265625 C 29.195312 -54.929688 31.566406 -54.390625 33.265625 -53.640625 C 34.972656 -52.898438 36.210938 -52.109375 36.984375 -51.265625 C 37.753906 -50.421875 38.234375 -49.691406 38.421875 -49.078125 C 38.609375 -48.472656 38.703125 -48.171875 38.703125 -48.171875 L 38.703125 -55.890625 Z M 38.640625 -55.890625 "/></g></g><g style="fill:#424040;fill-opacity:1;"><g transform="translate(393.118513, 101.754062)"><path style="stroke:none" d="M 13.046875 -55.8125 L 0.0625 -55.8125 C 0.769531 -55.8125 1.378906 -55.445312 1.890625 -54.71875 C 2.410156 -54 2.671875 -53.054688 2.671875 -51.890625 L 2.671875 -3.921875 C 2.671875 -2.753906 2.410156 -1.796875 1.890625 -1.046875 C 1.378906 -0.304688 0.75 0.0625 0 0.0625 L 6.9375 0.0625 C 6.238281 0.0625 5.644531 -0.273438 5.15625 -0.953125 C 4.664062 -1.628906 4.394531 -2.503906 4.34375 -3.578125 L 4.34375 -52.171875 C 4.34375 -52.171875 4.34375 -52.195312 4.34375 -52.25 L 4.34375 -52.171875 L 21.59375 0.0625 L 24.125 0 L 40.890625 -51.96875 L 40.890625 -3.640625 C 40.835938 -2.523438 40.550781 -1.640625 40.03125 -0.984375 C 39.519531 -0.328125 38.9375 0 38.28125 0 L 50.765625 0 C 50.023438 0 49.394531 -0.359375 48.875 -1.078125 C 48.363281 -1.804688 48.109375 -2.753906 48.109375 -3.921875 L 48.109375 -51.890625 C 48.109375 -53.109375 48.363281 -54.066406 48.875 -54.765625 C 49.394531 -55.460938 50.023438 -55.8125 50.765625 -55.8125 L 37.796875 -55.8125 C 38.546875 -55.8125 39.0625 -55.445312 39.34375 -54.71875 C 39.625 -54 39.578125 -53.054688 39.203125 -51.890625 L 25.59375 -9.75 L 11.703125 -51.890625 C 11.335938 -53.109375 11.28125 -54.066406 11.53125 -54.765625 C 11.789062 -55.460938 12.296875 -55.8125 13.046875 -55.8125 Z M 13.046875 -55.8125 "/></g></g><g style="fill:#424040;fill-opacity:1;"><g transform="translate(447.458337, 101.754062)"><path style="stroke:none" d="M 0 -55.890625 C 0.65625 -55.890625 1.238281 -55.550781 1.75 -54.875 C 2.269531 -54.195312 2.550781 -53.320312 2.59375 -52.25 L 2.59375 -3.640625 C 2.550781 -2.566406 2.269531 -1.691406 1.75 -1.015625 C 1.238281 -0.335938 0.65625 0 0 0 L 12.40625 0 C 11.707031 0 11.097656 -0.359375 10.578125 -1.078125 C 10.066406 -1.804688 9.8125 -2.753906 9.8125 -3.921875 L 9.8125 -51.890625 C 9.8125 -53.109375 10.066406 -54.078125 10.578125 -54.796875 C 11.097656 -55.523438 11.707031 -55.890625 12.40625 -55.890625 Z M 0 -55.890625 "/></g></g><g style="fill:#424040;fill-opacity:1;"><g transform="translate(463.444761, 101.754062)"><path style="stroke:none" d="M 12.546875 -55.890625 L 0.140625 -55.890625 C 0.179688 -55.890625 0.203125 -55.890625 0.203125 -55.890625 C 0.203125 -55.890625 0.226562 -55.890625 0.28125 -55.890625 L 0.0625 -55.890625 C 0.769531 -55.890625 1.378906 -55.523438 1.890625 -54.796875 C 2.410156 -54.078125 2.671875 -53.132812 2.671875 -51.96875 L 2.59375 -4 C 2.59375 -2.832031 2.347656 -1.875 1.859375 -1.125 C 1.367188 -0.375 0.75 0 0 0 L 6.875 0 C 6.21875 0 5.644531 -0.335938 5.15625 -1.015625 C 4.664062 -1.691406 4.375 -2.566406 4.28125 -3.640625 L 4.34375 -52.25 C 4.34375 -52.289062 4.34375 -52.320312 4.34375 -52.34375 C 4.34375 -52.375 4.34375 -52.410156 4.34375 -52.453125 C 4.34375 -52.410156 4.390625 -52.34375 4.484375 -52.25 L 27.625 -3.71875 C 28.144531 -2.59375 28.296875 -1.703125 28.078125 -1.046875 C 27.867188 -0.390625 27.4375 -0.0625 26.78125 -0.0625 L 39.203125 0 C 38.128906 0 37.453125 -0.375 37.171875 -1.125 C 36.890625 -1.875 36.703125 -2.710938 36.609375 -3.640625 L 36.671875 -52.25 C 36.722656 -53.320312 36.992188 -54.195312 37.484375 -54.875 C 37.972656 -55.550781 38.566406 -55.890625 39.265625 -55.890625 L 32.390625 -55.890625 C 33.097656 -55.890625 33.707031 -55.523438 34.21875 -54.796875 C 34.738281 -54.078125 35 -53.132812 35 -51.96875 L 34.921875 -4 C 34.921875 -3.945312 34.921875 -3.882812 34.921875 -3.8125 C 34.921875 -3.75 34.921875 -3.671875 34.921875 -3.578125 C 34.878906 -3.671875 34.84375 -3.75 34.8125 -3.8125 C 34.789062 -3.882812 34.757812 -3.945312 34.71875 -4 L 11.84375 -51.96875 C 11.289062 -53.175781 11.09375 -54.128906 11.25 -54.828125 C 11.414062 -55.535156 11.847656 -55.890625 12.546875 -55.890625 Z M 12.546875 -55.890625 "/></g></g><g style="fill:#424040;fill-opacity:1;"><g transform="translate(506.21545, 101.754062)"><path style="stroke:none" d="M 15.078125 0 C 19.753906 0 23.691406 -0.628906 26.890625 -1.890625 C 30.097656 -3.148438 32.691406 -4.832031 34.671875 -6.9375 C 36.660156 -9.039062 38.179688 -11.34375 39.234375 -13.84375 C 40.285156 -16.34375 40.984375 -18.84375 41.328125 -21.34375 C 41.679688 -23.851562 41.859375 -26.113281 41.859375 -28.125 C 41.859375 -29.945312 41.660156 -32.0625 41.265625 -34.46875 C 40.867188 -36.875 40.132812 -39.328125 39.0625 -41.828125 C 37.988281 -44.328125 36.457031 -46.640625 34.46875 -48.765625 C 32.476562 -50.898438 29.90625 -52.617188 26.75 -53.921875 C 23.59375 -55.234375 19.722656 -55.890625 15.140625 -55.890625 L 0 -55.890625 C 0.65625 -55.890625 1.238281 -55.550781 1.75 -54.875 C 2.269531 -54.195312 2.550781 -53.320312 2.59375 -52.25 L 2.59375 -3.640625 C 2.550781 -2.566406 2.269531 -1.691406 1.75 -1.015625 C 1.238281 -0.335938 0.65625 0 0 0 Z M 10.9375 -55.265625 L 11.578125 -55.265625 C 15.679688 -55.210938 19.085938 -54.585938 21.796875 -53.390625 C 24.515625 -52.203125 26.703125 -50.648438 28.359375 -48.734375 C 30.023438 -46.816406 31.265625 -44.757812 32.078125 -42.5625 C 32.898438 -40.363281 33.453125 -38.25 33.734375 -36.21875 C 34.015625 -34.1875 34.15625 -32.429688 34.15625 -30.953125 C 34.15625 -29.484375 34.15625 -28.539062 34.15625 -28.125 C 34.15625 -27.75 34.128906 -26.835938 34.078125 -25.390625 C 34.035156 -23.941406 33.835938 -22.1875 33.484375 -20.125 C 33.128906 -18.070312 32.492188 -15.945312 31.578125 -13.75 C 30.671875 -11.550781 29.363281 -9.46875 27.65625 -7.5 C 25.957031 -5.539062 23.75 -3.941406 21.03125 -2.703125 C 18.320312 -1.460938 14.957031 -0.796875 10.9375 -0.703125 C 10.613281 -1.023438 10.34375 -1.46875 10.125 -2.03125 C 9.914062 -2.59375 9.8125 -3.25 9.8125 -4 L 9.8125 -51.96875 C 9.8125 -52.664062 9.914062 -53.304688 10.125 -53.890625 C 10.34375 -54.472656 10.613281 -54.929688 10.9375 -55.265625 Z M 10.9375 -55.265625 "/></g></g><g style="fill:#424040;fill-opacity:1;"><g transform="translate(353.668583, 187.254675)"><path style="stroke:none" d="M 70.78125 -63.125 C 71.207031 -62.914062 71.472656 -62.601562 71.578125 -62.1875 C 71.691406 -61.78125 71.625 -61.363281 71.375 -60.9375 C 71.3125 -60.8125 71.21875 -60.6875 71.09375 -60.5625 C 70.976562 -60.445312 70.859375 -60.34375 70.734375 -60.25 C 70.210938 -59.851562 69.644531 -59.539062 69.03125 -59.3125 C 68.425781 -59.082031 67.804688 -58.859375 67.171875 -58.640625 C 67.109375 -58.609375 67.046875 -58.582031 66.984375 -58.5625 C 66.921875 -58.550781 66.859375 -58.546875 66.796875 -58.546875 C 66.335938 -58.546875 66.03125 -58.742188 65.875 -59.140625 C 65.726562 -59.535156 65.820312 -59.859375 66.15625 -60.109375 C 66.25 -60.171875 66.335938 -60.238281 66.421875 -60.3125 C 66.515625 -60.382812 66.625 -60.4375 66.75 -60.46875 C 67 -60.5625 67.265625 -60.660156 67.546875 -60.765625 C 67.835938 -60.878906 68.09375 -61.023438 68.3125 -61.203125 C 68.40625 -61.265625 68.554688 -61.328125 68.765625 -61.390625 C 68.984375 -61.453125 69.03125 -61.515625 68.90625 -61.578125 C 68.71875 -61.703125 68.53125 -61.765625 68.34375 -61.765625 C 68.164062 -61.765625 67.988281 -61.773438 67.8125 -61.796875 C 65.363281 -62.109375 62.894531 -62.253906 60.40625 -62.234375 C 57.914062 -62.222656 55.421875 -62.1875 52.921875 -62.125 C 52.179688 -62.09375 51.441406 -62.078125 50.703125 -62.078125 C 49.972656 -62.078125 49.242188 -62.0625 48.515625 -62.03125 C 46.929688 -62 45.351562 -61.957031 43.78125 -61.90625 C 42.207031 -61.863281 40.640625 -61.800781 39.078125 -61.71875 C 38.679688 -61.6875 38.238281 -61.742188 37.75 -61.890625 C 37.257812 -62.046875 36.925781 -61.957031 36.75 -61.625 C 36.71875 -61.53125 36.671875 -61.441406 36.609375 -61.359375 C 36.546875 -61.285156 36.484375 -61.21875 36.421875 -61.15625 C 35.203125 -59.320312 34.0625 -57.441406 33 -55.515625 C 31.945312 -53.597656 30.828125 -51.707031 29.640625 -49.84375 C 25.671875 -43.675781 21.710938 -37.5 17.765625 -31.3125 C 13.828125 -25.125 9.90625 -18.914062 6 -12.6875 C 4.625 -10.488281 3.285156 -8.257812 1.984375 -6 C 0.691406 -3.738281 -0.578125 -1.445312 -1.828125 0.875 C -2.410156 1.9375 -2.96875 3.023438 -3.5 4.140625 C -4.039062 5.253906 -4.582031 6.363281 -5.125 7.46875 C -5.1875 7.59375 -5.28125 7.722656 -5.40625 7.859375 C -5.53125 7.992188 -5.5625 8.140625 -5.5 8.296875 C -5.4375 8.390625 -5.390625 8.476562 -5.359375 8.5625 C -5.328125 8.65625 -5.296875 8.734375 -5.265625 8.796875 C -5.117188 9.003906 -5.101562 9.21875 -5.21875 9.4375 C -5.40625 9.738281 -5.585938 10.019531 -5.765625 10.28125 C -5.953125 10.539062 -6.164062 10.796875 -6.40625 11.046875 C -6.53125 11.160156 -6.703125 11.25 -6.921875 11.3125 C -7.160156 11.375 -7.382812 11.328125 -7.59375 11.171875 C -7.8125 11.023438 -7.921875 10.8125 -7.921875 10.53125 C -7.921875 10.257812 -7.875 10.015625 -7.78125 9.796875 C -7.632812 9.460938 -7.503906 9.144531 -7.390625 8.84375 C -7.285156 8.539062 -7.160156 8.234375 -7.015625 7.921875 C -6.242188 6.484375 -5.503906 5.039062 -4.796875 3.59375 C -4.097656 2.144531 -3.367188 0.703125 -2.609375 -0.734375 C -1.054688 -3.628906 0.566406 -6.503906 2.265625 -9.359375 C 3.960938 -12.222656 5.679688 -15.0625 7.421875 -17.875 C 10.078125 -22.144531 12.722656 -26.429688 15.359375 -30.734375 C 18.003906 -35.046875 20.628906 -39.335938 23.234375 -43.609375 C 24.484375 -45.691406 25.753906 -47.75 27.046875 -49.78125 C 28.347656 -51.8125 29.609375 -53.847656 30.828125 -55.890625 C 31.046875 -56.222656 31.269531 -56.570312 31.5 -56.9375 C 31.726562 -57.3125 31.929688 -57.679688 32.109375 -58.046875 L 32.9375 -59.734375 C 33.03125 -59.921875 33.128906 -60.101562 33.234375 -60.28125 C 33.347656 -60.46875 33.445312 -60.65625 33.53125 -60.84375 C 33.59375 -60.9375 33.660156 -61.050781 33.734375 -61.1875 C 33.816406 -61.320312 33.8125 -61.390625 33.71875 -61.390625 C 33.445312 -61.390625 33.179688 -61.394531 32.921875 -61.40625 C 32.660156 -61.425781 32.40625 -61.421875 32.15625 -61.390625 C 31.269531 -61.296875 30.382812 -61.222656 29.5 -61.171875 C 28.613281 -61.128906 27.726562 -61.082031 26.84375 -61.03125 C 25.75 -61 24.648438 -60.925781 23.546875 -60.8125 C 22.453125 -60.707031 21.351562 -60.625 20.25 -60.5625 C 19.269531 -60.5 18.285156 -60.429688 17.296875 -60.359375 C 16.304688 -60.285156 15.304688 -60.203125 14.296875 -60.109375 C 13.285156 -60.015625 12.273438 -59.921875 11.265625 -59.828125 C 10.265625 -59.742188 9.273438 -59.671875 8.296875 -59.609375 C 7.378906 -59.546875 6.46875 -59.472656 5.5625 -59.390625 C 4.664062 -59.316406 3.773438 -59.234375 2.890625 -59.140625 C 2.035156 -59.054688 1.175781 -58.972656 0.3125 -58.890625 C -0.539062 -58.816406 -1.394531 -58.734375 -2.25 -58.640625 C -3.25 -58.515625 -4.242188 -58.40625 -5.234375 -58.3125 C -6.234375 -58.226562 -7.222656 -58.125 -8.203125 -58 C -9.148438 -57.875 -10.097656 -57.757812 -11.046875 -57.65625 C -11.992188 -57.550781 -12.9375 -57.40625 -13.875 -57.21875 C -14 -57.1875 -14.113281 -57.15625 -14.21875 -57.125 C -14.332031 -57.09375 -14.445312 -57.066406 -14.5625 -57.046875 C -14.8125 -56.984375 -15.023438 -56.953125 -15.203125 -56.953125 C -15.847656 -56.953125 -16.484375 -56.894531 -17.109375 -56.78125 C -17.734375 -56.675781 -18.367188 -56.59375 -19.015625 -56.53125 C -19.378906 -56.5 -19.734375 -56.46875 -20.078125 -56.4375 C -20.429688 -56.40625 -20.78125 -56.390625 -21.125 -56.390625 C -21.269531 -56.390625 -21.421875 -56.40625 -21.578125 -56.4375 C -21.734375 -56.46875 -21.882812 -56.546875 -22.03125 -56.671875 C -22.28125 -56.890625 -22.390625 -57.148438 -22.359375 -57.453125 C -22.328125 -57.753906 -22.160156 -57.96875 -21.859375 -58.09375 L -21.390625 -58.234375 C -20.597656 -58.503906 -19.78125 -58.6875 -18.9375 -58.78125 C -18.101562 -58.875 -17.289062 -58.976562 -16.5 -59.09375 C -16.21875 -59.15625 -15.9375 -59.191406 -15.65625 -59.203125 C -15.382812 -59.222656 -15.113281 -59.203125 -14.84375 -59.140625 C -14.570312 -59.109375 -14.296875 -59.097656 -14.015625 -59.109375 C -13.742188 -59.128906 -13.46875 -59.15625 -13.1875 -59.1875 C -11.632812 -59.34375 -10.070312 -59.535156 -8.5 -59.765625 C -6.925781 -59.992188 -5.34375 -60.1875 -3.75 -60.34375 C -0.175781 -60.707031 3.363281 -61.023438 6.875 -61.296875 C 8.675781 -61.453125 10.492188 -61.601562 12.328125 -61.75 C 14.160156 -61.90625 15.976562 -62.046875 17.78125 -62.171875 C 19.394531 -62.296875 21.023438 -62.410156 22.671875 -62.515625 C 24.328125 -62.617188 25.960938 -62.71875 27.578125 -62.8125 C 28.742188 -62.875 29.894531 -62.957031 31.03125 -63.0625 C 32.175781 -63.164062 33.332031 -63.21875 34.5 -63.21875 C 34.5625 -63.21875 34.632812 -63.195312 34.71875 -63.15625 C 34.8125 -63.113281 34.875 -63.148438 34.90625 -63.265625 C 35.09375 -63.722656 35.300781 -64.15625 35.53125 -64.5625 C 35.757812 -64.976562 35.992188 -65.398438 36.234375 -65.828125 C 36.328125 -65.984375 36.421875 -66.144531 36.515625 -66.3125 C 36.609375 -66.476562 36.695312 -66.625 36.78125 -66.75 C 37.125 -67.238281 37.539062 -67.378906 38.03125 -67.171875 C 38.519531 -66.953125 38.71875 -66.550781 38.625 -65.96875 C 38.5625 -65.601562 38.46875 -65.269531 38.34375 -64.96875 C 38.28125 -64.8125 38.148438 -64.625 37.953125 -64.40625 C 37.753906 -64.195312 37.609375 -64.007812 37.515625 -63.84375 C 37.429688 -63.675781 37.476562 -63.546875 37.65625 -63.453125 C 37.8125 -63.390625 37.960938 -63.359375 38.109375 -63.359375 C 38.265625 -63.359375 38.40625 -63.359375 38.53125 -63.359375 C 39.601562 -63.359375 40.664062 -63.390625 41.71875 -63.453125 C 42.769531 -63.515625 43.816406 -63.5625 44.859375 -63.59375 C 47.515625 -63.71875 50.160156 -63.789062 52.796875 -63.8125 C 55.441406 -63.84375 58.09375 -63.832031 60.75 -63.78125 C 62 -63.75 63.25 -63.722656 64.5 -63.703125 C 65.757812 -63.691406 67 -63.640625 68.21875 -63.546875 C 68.519531 -63.515625 68.804688 -63.488281 69.078125 -63.46875 C 69.359375 -63.457031 69.648438 -63.421875 69.953125 -63.359375 C 70.109375 -63.328125 70.253906 -63.296875 70.390625 -63.265625 C 70.523438 -63.234375 70.65625 -63.1875 70.78125 -63.125 Z M 70.78125 -63.125 "/></g></g><g style="fill:#424040;fill-opacity:1;"><g transform="translate(381.156971, 187.254675)"><path style="stroke:none" d="M -5.3125 -0.140625 C -5.644531 -0.140625 -5.914062 -0.238281 -6.125 -0.4375 C -6.34375 -0.632812 -6.453125 -0.882812 -6.453125 -1.1875 C -6.453125 -1.34375 -6.410156 -1.507812 -6.328125 -1.6875 C -6.234375 -1.875 -6.144531 -2.050781 -6.0625 -2.21875 C -5.988281 -2.382812 -5.90625 -2.546875 -5.8125 -2.703125 C -5.050781 -4.015625 -4.257812 -5.3125 -3.4375 -6.59375 C -2.613281 -7.875 -1.789062 -9.171875 -0.96875 -10.484375 C 1.570312 -14.492188 4.113281 -18.472656 6.65625 -22.421875 C 9.207031 -26.378906 11.753906 -30.34375 14.296875 -34.3125 C 16.734375 -38.132812 19.132812 -41.984375 21.5 -45.859375 C 23.875 -49.734375 26.3125 -53.566406 28.8125 -57.359375 C 28.90625 -57.515625 29 -57.660156 29.09375 -57.796875 C 29.1875 -57.929688 29.265625 -58.078125 29.328125 -58.234375 C 29.441406 -58.535156 29.566406 -58.816406 29.703125 -59.078125 C 29.847656 -59.335938 30.054688 -59.570312 30.328125 -59.78125 C 30.421875 -59.84375 30.5 -59.9375 30.5625 -60.0625 C 30.625 -60.1875 30.679688 -60.304688 30.734375 -60.421875 L 36.421875 -69.3125 C 36.578125 -69.59375 36.753906 -69.851562 36.953125 -70.09375 C 37.148438 -70.34375 37.335938 -70.585938 37.515625 -70.828125 C 37.796875 -71.191406 38.085938 -71.375 38.390625 -71.375 C 38.578125 -71.375 38.789062 -71.300781 39.03125 -71.15625 C 39.425781 -70.9375 39.625 -70.566406 39.625 -70.046875 C 39.625 -69.835938 39.578125 -69.640625 39.484375 -69.453125 C 39.304688 -69.085938 39.050781 -68.828125 38.71875 -68.671875 C 38.375 -68.554688 38.101562 -68.375 37.90625 -68.125 C 37.707031 -67.882812 37.519531 -67.609375 37.34375 -67.296875 C 36.539062 -65.984375 35.703125 -64.707031 34.828125 -63.46875 C 33.960938 -62.238281 33.085938 -60.992188 32.203125 -59.734375 L 31.984375 -59.421875 C 31.585938 -58.835938 31.164062 -58.28125 30.71875 -57.75 C 30.269531 -57.21875 29.863281 -56.644531 29.5 -56.03125 C 27.207031 -52.300781 24.878906 -48.585938 22.515625 -44.890625 C 20.148438 -41.203125 17.789062 -37.492188 15.4375 -33.765625 C 13.019531 -29.972656 10.582031 -26.164062 8.125 -22.34375 C 5.664062 -18.53125 3.21875 -14.71875 0.78125 -10.90625 C -0.0703125 -9.59375 -0.910156 -8.253906 -1.734375 -6.890625 C -2.566406 -5.535156 -3.425781 -4.1875 -4.3125 -2.84375 C -4.394531 -2.71875 -4.484375 -2.570312 -4.578125 -2.40625 C -4.671875 -2.238281 -4.71875 -2.03125 -4.71875 -1.78125 C -4.476562 -1.90625 -4.253906 -2.035156 -4.046875 -2.171875 C -3.847656 -2.304688 -3.675781 -2.4375 -3.53125 -2.5625 C -2.394531 -3.570312 -1.265625 -4.613281 -0.140625 -5.6875 C 0.960938 -6.75 2.070312 -7.785156 3.1875 -8.796875 C 4.300781 -9.804688 5.4375 -10.785156 6.59375 -11.734375 C 6.957031 -12.035156 7.316406 -12.320312 7.671875 -12.59375 C 8.023438 -12.875 8.398438 -13.132812 8.796875 -13.375 C 8.984375 -13.5 9.179688 -13.609375 9.390625 -13.703125 C 9.609375 -13.796875 9.820312 -13.84375 10.03125 -13.84375 C 10.769531 -13.84375 11.140625 -13.503906 11.140625 -12.828125 L 11.140625 -12.46875 C 11.140625 -12.28125 11.128906 -12.09375 11.109375 -11.90625 C 11.097656 -11.726562 11.078125 -11.546875 11.046875 -11.359375 C 10.984375 -10.867188 10.878906 -10.367188 10.734375 -9.859375 C 10.597656 -9.359375 10.472656 -8.851562 10.359375 -8.34375 C 10.109375 -7.300781 9.984375 -6.320312 9.984375 -5.40625 C 9.984375 -5.101562 10.003906 -4.804688 10.046875 -4.515625 C 10.097656 -4.222656 10.125 -3.925781 10.125 -3.625 C 10.125 -3.5 10.140625 -3.40625 10.171875 -3.34375 C 10.359375 -2.976562 10.539062 -2.703125 10.71875 -2.515625 C 10.90625 -2.335938 11.164062 -2.25 11.5 -2.25 C 11.925781 -2.25 12.320312 -2.320312 12.6875 -2.46875 C 13.050781 -2.625 13.390625 -2.8125 13.703125 -3.03125 C 14.523438 -3.539062 15.332031 -4.09375 16.125 -4.6875 C 16.914062 -5.289062 17.632812 -5.972656 18.28125 -6.734375 C 18.769531 -7.285156 19.242188 -7.84375 19.703125 -8.40625 C 20.160156 -8.96875 20.601562 -9.539062 21.03125 -10.125 C 21.15625 -10.28125 21.257812 -10.441406 21.34375 -10.609375 C 21.4375 -10.773438 21.53125 -10.9375 21.625 -11.09375 C 21.8125 -11.363281 22.039062 -11.5 22.3125 -11.5 C 22.769531 -11.5 23 -11.285156 23 -10.859375 C 23 -10.765625 22.984375 -10.671875 22.953125 -10.578125 C 22.921875 -10.492188 22.890625 -10.40625 22.859375 -10.3125 C 22.828125 -10.21875 22.75 -10.078125 22.625 -9.890625 C 21.132812 -7.660156 19.378906 -5.691406 17.359375 -3.984375 C 16.898438 -3.585938 16.441406 -3.226562 15.984375 -2.90625 C 15.523438 -2.582031 15.050781 -2.253906 14.5625 -1.921875 C 14.257812 -1.710938 13.925781 -1.515625 13.5625 -1.328125 C 13.195312 -1.140625 12.816406 -1.019531 12.421875 -0.96875 C 12.296875 -0.9375 12.15625 -0.910156 12 -0.890625 C 11.851562 -0.878906 11.703125 -0.875 11.546875 -0.875 C 10.203125 -0.875 9.332031 -1.484375 8.9375 -2.703125 C 8.71875 -3.378906 8.609375 -4.128906 8.609375 -4.953125 C 8.609375 -5.921875 8.722656 -6.867188 8.953125 -7.796875 C 9.179688 -8.734375 9.390625 -9.675781 9.578125 -10.625 L 9.796875 -11.8125 C 9.828125 -11.875 9.832031 -11.941406 9.8125 -12.015625 C 9.800781 -12.097656 9.796875 -12.203125 9.796875 -12.328125 C 9.585938 -12.265625 9.40625 -12.175781 9.25 -12.0625 C 9.101562 -11.957031 8.953125 -11.847656 8.796875 -11.734375 C 8.035156 -11.054688 7.265625 -10.394531 6.484375 -9.75 C 5.703125 -9.113281 4.929688 -8.445312 4.171875 -7.75 C 3.222656 -6.851562 2.257812 -5.960938 1.28125 -5.078125 C 0.300781 -4.191406 -0.675781 -3.304688 -1.65625 -2.421875 C -1.957031 -2.148438 -2.265625 -1.890625 -2.578125 -1.640625 C -2.898438 -1.398438 -3.21875 -1.160156 -3.53125 -0.921875 C -3.675781 -0.796875 -3.84375 -0.691406 -4.03125 -0.609375 C -4.21875 -0.535156 -4.398438 -0.441406 -4.578125 -0.328125 C -4.796875 -0.203125 -5.039062 -0.140625 -5.3125 -0.140625 Z M -5.3125 -0.140625 "/></g></g><g style="fill:#424040;fill-opacity:1;"><g transform="translate(403.514193, 187.254675)"><path style="stroke:none" d="M 3.296875 -2.65625 C 2.597656 -2.65625 1.894531 -2.75 1.1875 -2.9375 C 0.175781 -3.207031 -0.609375 -3.703125 -1.171875 -4.421875 C -1.734375 -5.140625 -2.015625 -6.003906 -2.015625 -7.015625 C -2.015625 -7.617188 -1.921875 -8.226562 -1.734375 -8.84375 C -1.554688 -9.457031 -1.328125 -10.035156 -1.046875 -10.578125 C -0.078125 -12.472656 1.25 -14.0625 2.9375 -15.34375 C 3.113281 -15.5 3.289062 -15.628906 3.46875 -15.734375 C 3.65625 -15.835938 3.859375 -15.921875 4.078125 -15.984375 C 4.265625 -16.046875 4.414062 -16.078125 4.53125 -16.078125 C 5.175781 -16.078125 5.5 -15.726562 5.5 -15.03125 C 5.5 -14.570312 5.375 -14.128906 5.125 -13.703125 C 4 -11.648438 2.382812 -10.132812 0.28125 -9.15625 L -0.328125 -8.890625 C -0.535156 -8.335938 -0.640625 -7.753906 -0.640625 -7.140625 C -0.640625 -5.859375 -0.101562 -4.957031 0.96875 -4.4375 C 1.207031 -4.320312 1.457031 -4.238281 1.71875 -4.1875 C 1.976562 -4.144531 2.226562 -4.109375 2.46875 -4.078125 C 3.269531 -4.015625 4.039062 -4.046875 4.78125 -4.171875 C 5.53125 -4.296875 6.257812 -4.492188 6.96875 -4.765625 C 8.800781 -5.460938 10.523438 -6.316406 12.140625 -7.328125 C 13.753906 -8.335938 15.265625 -9.5 16.671875 -10.8125 C 16.765625 -10.9375 16.847656 -11.050781 16.921875 -11.15625 C 17.003906 -11.257812 17.101562 -11.359375 17.21875 -11.453125 C 17.375 -11.640625 17.5625 -11.734375 17.78125 -11.734375 C 17.925781 -11.734375 18.0625 -11.6875 18.1875 -11.59375 C 18.40625 -11.40625 18.515625 -11.207031 18.515625 -11 C 18.515625 -10.875 18.46875 -10.734375 18.375 -10.578125 C 18.125 -10.210938 17.878906 -9.941406 17.640625 -9.765625 C 16.265625 -8.628906 14.84375 -7.5625 13.375 -6.5625 C 11.90625 -5.570312 10.347656 -4.695312 8.703125 -3.9375 C 8.210938 -3.726562 7.703125 -3.53125 7.171875 -3.34375 C 6.640625 -3.15625 6.097656 -3.003906 5.546875 -2.890625 C 5.179688 -2.828125 4.804688 -2.769531 4.421875 -2.71875 C 4.035156 -2.675781 3.660156 -2.65625 3.296875 -2.65625 Z M 1.046875 -11.3125 C 1.472656 -11.5 1.945312 -11.863281 2.46875 -12.40625 C 2.988281 -12.957031 3.375 -13.492188 3.625 -14.015625 C 3.226562 -13.804688 2.757812 -13.410156 2.21875 -12.828125 C 1.6875 -12.242188 1.296875 -11.738281 1.046875 -11.3125 Z M 1.046875 -11.3125 "/></g></g><g style="fill:#424040;fill-opacity:1;"><g transform="translate(421.473273, 187.254675)"><path style="stroke:none" d="M 21.171875 -17.09375 C 21.253906 -16.507812 21.175781 -15.957031 20.9375 -15.4375 C 20.75 -15.101562 20.488281 -14.921875 20.15625 -14.890625 C 19.945312 -14.890625 19.78125 -14.972656 19.65625 -15.140625 C 19.53125 -15.304688 19.484375 -15.5 19.515625 -15.71875 C 19.546875 -15.78125 19.578125 -15.835938 19.609375 -15.890625 C 19.640625 -15.953125 19.671875 -16.015625 19.703125 -16.078125 C 19.734375 -16.171875 19.753906 -16.253906 19.765625 -16.328125 C 19.785156 -16.410156 19.796875 -16.507812 19.796875 -16.625 C 19.828125 -16.90625 19.796875 -17.117188 19.703125 -17.265625 C 19.609375 -17.421875 19.394531 -17.53125 19.0625 -17.59375 C 18.78125 -17.75 18.457031 -17.796875 18.09375 -17.734375 C 17.507812 -17.734375 16.941406 -17.675781 16.390625 -17.5625 C 15.847656 -17.457031 15.285156 -17.316406 14.703125 -17.140625 C 13.878906 -16.859375 13.078125 -16.535156 12.296875 -16.171875 C 11.523438 -15.804688 10.769531 -15.410156 10.03125 -14.984375 C 7.070312 -13.273438 4.304688 -11.332031 1.734375 -9.15625 C -0.828125 -6.988281 -3.128906 -4.515625 -5.171875 -1.734375 L -5.8125 -0.96875 C -5.84375 -0.875 -5.90625 -0.800781 -6 -0.75 C -6.09375 -0.707031 -6.1875 -0.65625 -6.28125 -0.59375 C -6.488281 -0.53125 -6.675781 -0.550781 -6.84375 -0.65625 C -7.007812 -0.769531 -7.109375 -0.929688 -7.140625 -1.140625 C -7.140625 -1.328125 -7.082031 -1.539062 -6.96875 -1.78125 C -6.875 -1.9375 -6.769531 -2.101562 -6.65625 -2.28125 C -6.550781 -2.46875 -6.441406 -2.625 -6.328125 -2.75 C -5.222656 -4.550781 -4.101562 -6.335938 -2.96875 -8.109375 C -1.84375 -9.878906 -0.71875 -11.648438 0.40625 -13.421875 C 0.46875 -13.484375 0.519531 -13.566406 0.5625 -13.671875 C 0.613281 -13.785156 0.671875 -13.882812 0.734375 -13.96875 C 0.890625 -14.25 1.039062 -14.53125 1.1875 -14.8125 C 1.34375 -15.101562 1.507812 -15.375 1.6875 -15.625 C 2.03125 -16.113281 2.375 -16.578125 2.71875 -17.015625 C 3.070312 -17.460938 3.40625 -17.898438 3.71875 -18.328125 C 3.769531 -18.421875 3.832031 -18.507812 3.90625 -18.59375 C 3.988281 -18.6875 4.078125 -18.765625 4.171875 -18.828125 C 4.441406 -19.078125 4.742188 -19.109375 5.078125 -18.921875 C 5.390625 -18.679688 5.5 -18.390625 5.40625 -18.046875 C 5.375 -17.929688 5.328125 -17.796875 5.265625 -17.640625 C 5.203125 -17.484375 5.128906 -17.332031 5.046875 -17.1875 C 4.671875 -16.695312 4.300781 -16.175781 3.9375 -15.625 C 3.570312 -15.070312 3.207031 -14.535156 2.84375 -14.015625 C 2.625 -13.710938 2.484375 -13.453125 2.421875 -13.234375 C 2.390625 -13.179688 2.359375 -13.125 2.328125 -13.0625 C 2.304688 -13 2.28125 -12.9375 2.25 -12.875 C 1.300781 -11.65625 0.382812 -10.414062 -0.5 -9.15625 C -0.53125 -9.15625 -0.546875 -9.140625 -0.546875 -9.109375 C -0.546875 -9.085938 -0.5625 -9.0625 -0.59375 -9.03125 C -0.53125 -8.96875 -0.5 -8.9375 -0.5 -8.9375 C -0.382812 -9.03125 -0.28125 -9.113281 -0.1875 -9.1875 C -0.09375 -9.257812 -0.015625 -9.34375 0.046875 -9.4375 C 1.597656 -10.78125 3.195312 -12.046875 4.84375 -13.234375 C 6.5 -14.429688 8.242188 -15.503906 10.078125 -16.453125 C 10.867188 -16.878906 11.671875 -17.28125 12.484375 -17.65625 C 13.296875 -18.039062 14.160156 -18.351562 15.078125 -18.59375 C 15.617188 -18.75 16.171875 -18.875 16.734375 -18.96875 C 17.304688 -19.0625 17.882812 -19.09375 18.46875 -19.0625 C 18.707031 -19.0625 18.925781 -19.03125 19.125 -18.96875 C 19.320312 -18.90625 19.53125 -18.84375 19.75 -18.78125 C 20.539062 -18.507812 21.015625 -17.945312 21.171875 -17.09375 Z M 21.171875 -17.09375 "/></g></g><g style="fill:#424040;fill-opacity:1;"><g transform="translate(443.143291, 187.254675)"><path style="stroke:none" d="M 11.859375 -4.03125 C 11.066406 -4.03125 10.394531 -4.210938 9.84375 -4.578125 C 9.300781 -4.941406 8.890625 -5.429688 8.609375 -6.046875 C 8.429688 -6.472656 8.285156 -6.890625 8.171875 -7.296875 C 8.066406 -7.710938 8.015625 -8.132812 8.015625 -8.5625 L 8.015625 -10.3125 C 7.835938 -10.488281 7.703125 -10.640625 7.609375 -10.765625 C 7.515625 -10.890625 7.46875 -11.023438 7.46875 -11.171875 C 7.46875 -11.234375 7.472656 -11.3125 7.484375 -11.40625 C 7.503906 -11.5 7.53125 -11.609375 7.5625 -11.734375 C 7.625 -11.972656 7.695312 -12.242188 7.78125 -12.546875 C 7.875 -12.859375 7.96875 -13.179688 8.0625 -13.515625 C 7.9375 -13.390625 7.835938 -13.296875 7.765625 -13.234375 C 7.691406 -13.179688 7.625 -13.125 7.5625 -13.0625 C 7.007812 -12.507812 6.492188 -11.9375 6.015625 -11.34375 C 5.546875 -10.75 5.066406 -10.160156 4.578125 -9.578125 C 4.210938 -9.148438 3.832031 -8.710938 3.4375 -8.265625 C 3.039062 -7.828125 2.628906 -7.394531 2.203125 -6.96875 C 1.890625 -6.65625 1.570312 -6.382812 1.25 -6.15625 C 0.9375 -5.925781 0.613281 -5.675781 0.28125 -5.40625 C 0.125 -5.28125 -0.0546875 -5.164062 -0.265625 -5.0625 C -0.484375 -4.957031 -0.71875 -4.875 -0.96875 -4.8125 C -1.019531 -4.78125 -1.09375 -4.765625 -1.1875 -4.765625 C -1.28125 -4.765625 -1.359375 -4.765625 -1.421875 -4.765625 C -1.785156 -4.765625 -2.082031 -4.898438 -2.3125 -5.171875 C -2.539062 -5.453125 -2.65625 -5.789062 -2.65625 -6.1875 C -2.65625 -6.425781 -2.625 -6.675781 -2.5625 -6.9375 C -2.5 -7.195312 -2.425781 -7.4375 -2.34375 -7.65625 C -2 -8.476562 -1.601562 -9.289062 -1.15625 -10.09375 C -0.71875 -10.90625 -0.253906 -11.679688 0.234375 -12.421875 C 0.722656 -13.117188 1.253906 -13.765625 1.828125 -14.359375 C 2.410156 -14.953125 3.007812 -15.507812 3.625 -16.03125 C 3.957031 -16.3125 4.304688 -16.570312 4.671875 -16.8125 C 5.035156 -17.0625 5.414062 -17.273438 5.8125 -17.453125 C 6.03125 -17.546875 6.253906 -17.628906 6.484375 -17.703125 C 6.710938 -17.785156 6.929688 -17.84375 7.140625 -17.875 C 7.265625 -17.894531 7.375 -17.910156 7.46875 -17.921875 C 7.5625 -17.941406 7.65625 -17.953125 7.75 -17.953125 C 8.019531 -17.953125 8.273438 -17.921875 8.515625 -17.859375 C 8.765625 -17.804688 8.992188 -17.671875 9.203125 -17.453125 L 9.390625 -17.265625 L 9.484375 -17.21875 L 10.03125 -17.5 C 10.09375 -17.53125 10.171875 -17.546875 10.265625 -17.546875 C 10.722656 -17.546875 10.953125 -17.316406 10.953125 -16.859375 C 10.953125 -16.734375 10.9375 -16.59375 10.90625 -16.4375 C 10.875 -16.289062 10.828125 -16.140625 10.765625 -15.984375 C 10.578125 -15.460938 10.414062 -14.9375 10.28125 -14.40625 C 10.144531 -13.875 10 -13.332031 9.84375 -12.78125 C 9.695312 -12.113281 9.59375 -11.425781 9.53125 -10.71875 C 9.46875 -10.019531 9.4375 -9.316406 9.4375 -8.609375 C 9.4375 -7.972656 9.546875 -7.378906 9.765625 -6.828125 C 10.160156 -5.878906 10.875 -5.40625 11.90625 -5.40625 C 12.25 -5.40625 12.570312 -5.425781 12.875 -5.46875 C 13.175781 -5.519531 13.484375 -5.617188 13.796875 -5.765625 C 14.035156 -5.921875 14.289062 -6.0625 14.5625 -6.1875 C 14.84375 -6.3125 15.117188 -6.445312 15.390625 -6.59375 C 16.273438 -7.113281 17.109375 -7.6875 17.890625 -8.3125 C 18.671875 -8.9375 19.425781 -9.617188 20.15625 -10.359375 C 20.28125 -10.472656 20.382812 -10.582031 20.46875 -10.6875 C 20.5625 -10.800781 20.582031 -10.960938 20.53125 -11.171875 C 20.5 -11.171875 20.484375 -11.203125 20.484375 -11.265625 C 20.484375 -11.359375 20.535156 -11.425781 20.640625 -11.46875 C 20.742188 -11.519531 20.828125 -11.578125 20.890625 -11.640625 C 20.953125 -11.703125 21.0625 -11.734375 21.21875 -11.734375 C 21.425781 -11.734375 21.613281 -11.65625 21.78125 -11.5 C 21.945312 -11.34375 22.03125 -11.160156 22.03125 -10.953125 C 22.03125 -10.671875 21.957031 -10.425781 21.8125 -10.21875 C 21.71875 -10.09375 21.625 -9.976562 21.53125 -9.875 C 21.4375 -9.769531 21.347656 -9.671875 21.265625 -9.578125 C 20.492188 -8.816406 19.710938 -8.128906 18.921875 -7.515625 C 18.128906 -6.898438 17.289062 -6.289062 16.40625 -5.6875 C 15.882812 -5.3125 15.332031 -4.972656 14.75 -4.671875 C 14.164062 -4.367188 13.554688 -4.1875 12.921875 -4.125 C 12.734375 -4.09375 12.554688 -4.066406 12.390625 -4.046875 C 12.222656 -4.035156 12.046875 -4.03125 11.859375 -4.03125 Z M -1.234375 -6.140625 C -1.140625 -6.140625 -1.035156 -6.171875 -0.921875 -6.234375 C -0.703125 -6.328125 -0.5 -6.441406 -0.3125 -6.578125 C -0.132812 -6.710938 0.046875 -6.84375 0.234375 -6.96875 C 0.660156 -7.269531 1.03125 -7.585938 1.34375 -7.921875 C 1.664062 -8.265625 2 -8.632812 2.34375 -9.03125 C 3.3125 -10.15625 4.367188 -11.238281 5.515625 -12.28125 C 6.660156 -13.320312 7.570312 -14.515625 8.25 -15.859375 C 8.28125 -15.910156 8.3125 -15.96875 8.34375 -16.03125 C 8.375 -16.09375 8.375 -16.171875 8.34375 -16.265625 C 8.28125 -16.441406 8.140625 -16.53125 7.921875 -16.53125 C 7.773438 -16.53125 7.609375 -16.507812 7.421875 -16.46875 C 7.234375 -16.425781 7.066406 -16.375 6.921875 -16.3125 C 6.703125 -16.25 6.484375 -16.160156 6.265625 -16.046875 C 6.054688 -15.941406 5.832031 -15.816406 5.59375 -15.671875 C 5.25 -15.453125 4.914062 -15.210938 4.59375 -14.953125 C 4.28125 -14.691406 3.972656 -14.410156 3.671875 -14.109375 C 2.867188 -13.316406 2.125 -12.492188 1.4375 -11.640625 C 0.75 -10.785156 0.148438 -9.851562 -0.359375 -8.84375 C -0.515625 -8.539062 -0.660156 -8.226562 -0.796875 -7.90625 C -0.941406 -7.582031 -1.070312 -7.253906 -1.1875 -6.921875 C -1.25 -6.734375 -1.28125 -6.578125 -1.28125 -6.453125 C -1.28125 -6.335938 -1.265625 -6.234375 -1.234375 -6.140625 Z M -1.234375 -6.140625 "/></g></g><g style="fill:#424040;fill-opacity:1;"><g transform="translate(464.584234, 187.254675)"><path style="stroke:none" d="M -26.75 44.296875 C -26.875 44.296875 -26.984375 44.285156 -27.078125 44.265625 C -27.171875 44.253906 -27.273438 44.238281 -27.390625 44.21875 C -27.609375 44.125 -27.769531 44.003906 -27.875 43.859375 C -27.976562 43.722656 -28.078125 43.550781 -28.171875 43.34375 C -28.296875 43.0625 -28.359375 42.738281 -28.359375 42.375 C -28.359375 42.28125 -28.359375 42.179688 -28.359375 42.078125 C -28.359375 41.972656 -28.34375 41.875 -28.3125 41.78125 C -28.070312 40.707031 -27.796875 39.71875 -27.484375 38.8125 C -27.023438 37.457031 -26.503906 36.128906 -25.921875 34.828125 C -25.347656 33.535156 -24.753906 32.25 -24.140625 30.96875 C -22.765625 28.125 -21.34375 25.3125 -19.875 22.53125 C -18.414062 19.757812 -16.90625 17 -15.34375 14.25 C -13.445312 10.914062 -11.535156 7.613281 -9.609375 4.34375 C -7.691406 1.082031 -5.800781 -2.210938 -3.9375 -5.546875 C -3.414062 -6.429688 -2.890625 -7.300781 -2.359375 -8.15625 C -1.828125 -9.007812 -1.332031 -9.894531 -0.875 -10.8125 C -0.78125 -11 -0.675781 -11.191406 -0.5625 -11.390625 C -0.457031 -11.585938 -0.4375 -11.835938 -0.5 -12.140625 C -0.59375 -12.203125 -0.6875 -12.25 -0.78125 -12.28125 C -0.875 -12.3125 -0.953125 -12.34375 -1.015625 -12.375 C -1.410156 -12.644531 -1.546875 -13.007812 -1.421875 -13.46875 C -1.359375 -13.6875 -1.257812 -13.851562 -1.125 -13.96875 C -0.988281 -14.09375 -0.859375 -14.21875 -0.734375 -14.34375 C -0.460938 -14.582031 -0.191406 -14.800781 0.078125 -15 C 0.359375 -15.195312 0.65625 -15.359375 0.96875 -15.484375 C 1.476562 -15.703125 1.910156 -15.984375 2.265625 -16.328125 C 2.617188 -16.679688 2.914062 -17.085938 3.15625 -17.546875 C 3.582031 -18.335938 4.039062 -19.097656 4.53125 -19.828125 C 5.019531 -20.566406 5.492188 -21.316406 5.953125 -22.078125 C 6.015625 -22.203125 6.09375 -22.316406 6.1875 -22.421875 C 6.28125 -22.535156 6.367188 -22.648438 6.453125 -22.765625 C 6.703125 -22.953125 6.914062 -23.046875 7.09375 -23.046875 C 7.21875 -23.046875 7.34375 -23.015625 7.46875 -22.953125 C 7.863281 -22.734375 7.96875 -22.394531 7.78125 -21.9375 C 7.757812 -21.820312 7.71875 -21.703125 7.65625 -21.578125 C 7.59375 -21.453125 7.53125 -21.332031 7.46875 -21.21875 L 5.8125 -18.234375 L 5.5 -17.59375 C 5.65625 -17.625 5.773438 -17.640625 5.859375 -17.640625 C 5.953125 -17.640625 6.046875 -17.65625 6.140625 -17.6875 C 7.117188 -17.925781 8.070312 -18.164062 9 -18.40625 C 9.9375 -18.65625 10.890625 -18.859375 11.859375 -19.015625 C 12.285156 -19.078125 12.707031 -19.132812 13.125 -19.1875 C 13.539062 -19.25 13.945312 -19.28125 14.34375 -19.28125 C 14.582031 -19.28125 14.820312 -19.265625 15.0625 -19.234375 C 15.3125 -19.210938 15.546875 -19.171875 15.765625 -19.109375 C 16.003906 -19.078125 16.226562 -19.019531 16.4375 -18.9375 C 16.65625 -18.863281 16.875 -18.765625 17.09375 -18.640625 C 17.613281 -18.367188 18 -17.988281 18.25 -17.5 C 18.507812 -17.007812 18.566406 -16.472656 18.421875 -15.890625 C 18.296875 -15.316406 18.082031 -14.738281 17.78125 -14.15625 C 17.5 -13.601562 17.191406 -13.082031 16.859375 -12.59375 C 16.523438 -12.101562 16.160156 -11.644531 15.765625 -11.21875 C 15.117188 -10.519531 14.453125 -9.84375 13.765625 -9.1875 C 13.078125 -8.53125 12.382812 -7.878906 11.6875 -7.234375 C 10.09375 -5.828125 8.441406 -4.488281 6.734375 -3.21875 C 5.023438 -1.957031 3.285156 -0.75 1.515625 0.40625 C 0.378906 1.175781 -0.773438 1.921875 -1.953125 2.640625 C -3.128906 3.359375 -4.3125 4.066406 -5.5 4.765625 C -5.707031 4.890625 -5.929688 5.019531 -6.171875 5.15625 C -6.421875 5.289062 -6.671875 5.40625 -6.921875 5.5 C -7.128906 5.59375 -7.390625 5.640625 -7.703125 5.640625 L -7.78125 5.640625 C -8.15625 5.640625 -8.34375 5.484375 -8.34375 5.171875 L -8.34375 5.046875 C -8.34375 4.765625 -8.21875 4.578125 -7.96875 4.484375 C -6.257812 3.785156 -4.65625 2.921875 -3.15625 1.890625 C -1.664062 0.867188 -0.171875 -0.125 1.328125 -1.09375 C 2.859375 -2.070312 4.335938 -3.109375 5.765625 -4.203125 C 7.203125 -5.304688 8.609375 -6.441406 9.984375 -7.609375 C 10.992188 -8.492188 11.957031 -9.398438 12.875 -10.328125 C 13.789062 -11.265625 14.628906 -12.25 15.390625 -13.28125 C 15.640625 -13.625 15.863281 -13.96875 16.0625 -14.3125 C 16.257812 -14.664062 16.460938 -15.023438 16.671875 -15.390625 C 16.890625 -15.753906 17 -16.132812 17 -16.53125 L 17 -16.625 C 17 -16.96875 16.832031 -17.210938 16.5 -17.359375 C 16.1875 -17.515625 15.863281 -17.609375 15.53125 -17.640625 C 15.34375 -17.671875 15.164062 -17.691406 15 -17.703125 C 14.832031 -17.722656 14.660156 -17.734375 14.484375 -17.734375 C 13.898438 -17.734375 13.300781 -17.6875 12.6875 -17.59375 C 11.34375 -17.375 10.003906 -17.101562 8.671875 -16.78125 C 7.347656 -16.46875 6.046875 -16.050781 4.765625 -15.53125 C 4.460938 -15.40625 4.1875 -15.257812 3.9375 -15.09375 C 3.695312 -14.925781 3.484375 -14.707031 3.296875 -14.4375 C 3.117188 -14.125 2.90625 -13.835938 2.65625 -13.578125 C 2.414062 -13.316406 2.21875 -13.019531 2.0625 -12.6875 C 1.8125 -12.195312 1.539062 -11.722656 1.25 -11.265625 C 0.96875 -10.804688 0.671875 -10.347656 0.359375 -9.890625 C 0.0546875 -9.429688 -0.238281 -8.972656 -0.53125 -8.515625 C -0.820312 -8.054688 -1.101562 -7.597656 -1.375 -7.140625 C -1.675781 -6.648438 -1.972656 -6.179688 -2.265625 -5.734375 C -2.554688 -5.296875 -2.835938 -4.835938 -3.109375 -4.359375 C -3.390625 -3.867188 -3.671875 -3.394531 -3.953125 -2.9375 C -4.242188 -2.476562 -4.53125 -2.019531 -4.8125 -1.5625 C -7.46875 2.863281 -10.082031 7.304688 -12.65625 11.765625 C -15.238281 16.234375 -17.691406 20.753906 -20.015625 25.328125 C -20.960938 27.222656 -21.910156 29.117188 -22.859375 31.015625 C -23.804688 32.910156 -24.675781 34.847656 -25.46875 36.828125 C -25.78125 37.566406 -26.070312 38.296875 -26.34375 39.015625 C -26.613281 39.734375 -26.828125 40.488281 -26.984375 41.28125 C -27.015625 41.488281 -27.035156 41.707031 -27.046875 41.9375 C -27.066406 42.164062 -27.078125 42.40625 -27.078125 42.65625 C -27.078125 42.988281 -26.910156 43.125 -26.578125 43.0625 L -25.75 42.921875 C -25.625 42.921875 -25.53125 42.957031 -25.46875 43.03125 C -25.40625 43.113281 -25.332031 43.203125 -25.25 43.296875 C -25.21875 43.328125 -25.203125 43.375 -25.203125 43.4375 C -25.203125 43.613281 -25.273438 43.75 -25.421875 43.84375 C -25.878906 44.144531 -26.320312 44.296875 -26.75 44.296875 Z M -26.75 44.296875 "/></g></g><g style="fill:#424040;fill-opacity:1;"><g transform="translate(485.337973, 187.254675)"><path style="stroke:none" d="M -35.421875 55.75 C -36.941406 55.75 -37.882812 54.972656 -38.25 53.421875 C -38.4375 52.628906 -38.484375 51.832031 -38.390625 51.03125 C -38.234375 49.96875 -38.007812 48.921875 -37.71875 47.890625 C -37.4375 46.867188 -37.097656 45.867188 -36.703125 44.890625 C -35.566406 42.234375 -34.191406 39.65625 -32.578125 37.15625 C -31.347656 35.257812 -30.0625 33.441406 -28.71875 31.703125 C -27.375 29.960938 -25.972656 28.253906 -24.515625 26.578125 C -21.890625 23.578125 -19.191406 20.695312 -16.421875 17.9375 C -13.660156 15.175781 -10.796875 12.492188 -7.828125 9.890625 C -5.484375 7.847656 -3.066406 5.882812 -0.578125 4 C 1.910156 2.125 4.457031 0.347656 7.0625 -1.328125 C 7.632812 -1.691406 8.09375 -2.210938 8.4375 -2.890625 C 9.65625 -5.296875 10.878906 -7.691406 12.109375 -10.078125 C 13.347656 -12.460938 14.488281 -14.890625 15.53125 -17.359375 L 15.8125 -18 C 15.75 -18.09375 15.703125 -18.113281 15.671875 -18.0625 C 15.640625 -18.019531 15.59375 -17.984375 15.53125 -17.953125 C 15.46875 -17.921875 15.390625 -17.863281 15.296875 -17.78125 C 13.804688 -16.28125 12.234375 -14.878906 10.578125 -13.578125 C 8.929688 -12.285156 7.285156 -10.96875 5.640625 -9.625 C 4.929688 -9.039062 4.207031 -8.472656 3.46875 -7.921875 C 2.738281 -7.367188 2.007812 -6.804688 1.28125 -6.234375 C 0.882812 -5.921875 0.488281 -5.632812 0.09375 -5.375 C -0.300781 -5.125 -0.710938 -4.890625 -1.140625 -4.671875 C -1.328125 -4.578125 -1.507812 -4.5 -1.6875 -4.4375 C -1.875 -4.382812 -2.09375 -4.359375 -2.34375 -4.359375 C -3.164062 -4.359375 -3.578125 -4.753906 -3.578125 -5.546875 C -3.578125 -5.722656 -3.546875 -5.914062 -3.484375 -6.125 C -3.421875 -6.34375 -3.359375 -6.546875 -3.296875 -6.734375 C -3.171875 -7.003906 -3.046875 -7.273438 -2.921875 -7.546875 C -2.804688 -7.828125 -2.6875 -8.09375 -2.5625 -8.34375 C -1.675781 -9.957031 -0.703125 -11.484375 0.359375 -12.921875 L 3.9375 -17.734375 C 4.1875 -18.066406 4.453125 -18.398438 4.734375 -18.734375 C 5.023438 -19.066406 5.34375 -19.34375 5.6875 -19.5625 C 5.832031 -19.65625 5.984375 -19.738281 6.140625 -19.8125 C 6.296875 -19.882812 6.460938 -19.921875 6.640625 -19.921875 C 6.921875 -19.921875 7.160156 -19.835938 7.359375 -19.671875 C 7.554688 -19.503906 7.65625 -19.300781 7.65625 -19.0625 L 7.65625 -18.828125 C 7.65625 -18.460938 7.59375 -18.144531 7.46875 -17.875 C 6.945312 -16.613281 6.242188 -15.492188 5.359375 -14.515625 C 5.023438 -14.148438 4.71875 -13.96875 4.4375 -13.96875 C 4.351562 -13.96875 4.253906 -13.972656 4.140625 -13.984375 C 4.035156 -14.003906 3.90625 -14.03125 3.75 -14.0625 C 2.75 -12.8125 1.734375 -11.546875 0.703125 -10.265625 C -0.316406 -8.984375 -1.207031 -7.5625 -1.96875 -6 L -1.46875 -6.1875 C -1.132812 -6.394531 -0.789062 -6.601562 -0.4375 -6.8125 C -0.0820312 -7.03125 0.242188 -7.265625 0.546875 -7.515625 C 1.617188 -8.335938 2.679688 -9.160156 3.734375 -9.984375 C 4.785156 -10.804688 5.832031 -11.644531 6.875 -12.5 C 8.3125 -13.664062 9.753906 -14.835938 11.203125 -16.015625 C 12.648438 -17.191406 14.03125 -18.4375 15.34375 -19.75 C 15.5 -19.894531 15.660156 -20.03125 15.828125 -20.15625 C 15.992188 -20.28125 16.140625 -20.40625 16.265625 -20.53125 C 16.472656 -20.738281 16.671875 -20.890625 16.859375 -20.984375 C 17.046875 -21.078125 17.226562 -21.125 17.40625 -21.125 C 17.625 -21.125 17.789062 -21.0625 17.90625 -20.9375 C 18.15625 -20.695312 18.28125 -20.453125 18.28125 -20.203125 C 18.28125 -19.992188 18.234375 -19.773438 18.140625 -19.546875 C 18.046875 -19.316406 17.957031 -19.09375 17.875 -18.875 L 16.71875 -16.5 C 15.769531 -14.476562 14.773438 -12.472656 13.734375 -10.484375 C 12.703125 -8.503906 11.695312 -6.519531 10.71875 -4.53125 C 10.625 -4.414062 10.539062 -4.269531 10.46875 -4.09375 C 10.394531 -3.925781 10.328125 -3.769531 10.265625 -3.625 L 10.40625 -3.484375 C 10.550781 -3.578125 10.691406 -3.664062 10.828125 -3.75 C 10.972656 -3.84375 11.117188 -3.9375 11.265625 -4.03125 C 13.410156 -5.25 15.554688 -6.445312 17.703125 -7.625 C 19.859375 -8.800781 22.019531 -9.984375 24.1875 -11.171875 C 24.4375 -11.328125 24.695312 -11.457031 24.96875 -11.5625 C 25.238281 -11.675781 25.515625 -11.789062 25.796875 -11.90625 C 26.035156 -12 26.25 -12.03125 26.4375 -12 C 26.707031 -11.9375 26.890625 -11.785156 26.984375 -11.546875 L 26.984375 -11.40625 C 26.984375 -11.195312 26.890625 -11.015625 26.703125 -10.859375 L 26.25 -10.578125 C 25.820312 -10.398438 25.394531 -10.21875 24.96875 -10.03125 C 24.539062 -9.851562 24.113281 -9.65625 23.6875 -9.4375 C 21.300781 -8.25 18.953125 -7.007812 16.640625 -5.71875 C 14.335938 -4.4375 12.054688 -3.082031 9.796875 -1.65625 C 9.316406 -1.34375 8.9375 -0.910156 8.65625 -0.359375 C 7.375 2.203125 6.09375 4.75 4.8125 7.28125 C 3.53125 9.820312 2.203125 12.359375 0.828125 14.890625 C -1.429688 19.046875 -3.84375 23.078125 -6.40625 26.984375 C -8.976562 30.890625 -11.773438 34.660156 -14.796875 38.296875 C -17.703125 41.785156 -20.757812 45.113281 -23.96875 48.28125 C -24.90625 49.195312 -25.863281 50.082031 -26.84375 50.9375 C -27.820312 51.800781 -28.847656 52.597656 -29.921875 53.328125 C -30.347656 53.628906 -30.789062 53.910156 -31.25 54.171875 C -31.707031 54.429688 -32.164062 54.703125 -32.625 54.984375 C -32.925781 55.160156 -33.257812 55.3125 -33.625 55.4375 C -33.988281 55.5625 -34.359375 55.648438 -34.734375 55.703125 C -34.847656 55.734375 -34.957031 55.75 -35.0625 55.75 C -35.175781 55.75 -35.296875 55.75 -35.421875 55.75 Z M -35.375 54.375 C -34.820312 54.375 -34.285156 54.265625 -33.765625 54.046875 C -33.242188 53.835938 -32.738281 53.597656 -32.25 53.328125 C -31.457031 52.867188 -30.703125 52.378906 -29.984375 51.859375 C -29.265625 51.335938 -28.570312 50.789062 -27.90625 50.21875 C -26.3125 48.875 -24.796875 47.484375 -23.359375 46.046875 C -21.929688 44.609375 -20.546875 43.125 -19.203125 41.59375 C -16.023438 38.019531 -13.0625 34.304688 -10.3125 30.453125 C -7.5625 26.609375 -4.992188 22.613281 -2.609375 18.46875 C -0.992188 15.625 0.5625 12.742188 2.0625 9.828125 C 3.5625 6.910156 5.039062 3.984375 6.5 1.046875 L 6.640625 0.640625 C 6.640625 0.609375 6.609375 0.5625 6.546875 0.5 L 6 0.875 C 4.101562 2.15625 2.238281 3.488281 0.40625 4.875 C -1.425781 6.269531 -3.226562 7.679688 -5 9.109375 C -7.289062 10.972656 -9.503906 12.921875 -11.640625 14.953125 C -13.773438 16.984375 -15.863281 19.070312 -17.90625 21.21875 C -19.625 23.019531 -21.304688 24.863281 -22.953125 26.75 C -24.597656 28.644531 -26.1875 30.585938 -27.71875 32.578125 C -28.9375 34.191406 -30.09375 35.859375 -31.1875 37.578125 C -32.289062 39.304688 -33.316406 41.085938 -34.265625 42.921875 C -34.785156 43.960938 -35.257812 45.007812 -35.6875 46.0625 C -36.113281 47.113281 -36.453125 48.222656 -36.703125 49.390625 C -36.785156 49.785156 -36.859375 50.179688 -36.921875 50.578125 C -36.984375 50.972656 -37.015625 51.382812 -37.015625 51.8125 C -37.015625 53.519531 -36.46875 54.375 -35.375 54.375 Z M -35.375 54.375 "/></g></g></g></svg>