<svg xmlns="http://www.w3.org/2000/svg" xmlns:xlink="http://www.w3.org/1999/xlink" width="192" zoomAndPan="magnify" viewBox="0 0 144 143.999998" height="192" preserveAspectRatio="xMidYMid meet" version="1.2"><defs/><g id="58559327b8"><rect x="0" width="144" y="0" height="143.999998" style="fill:#ffffff;fill-opacity:1;stroke:none;"/><rect x="0" width="144" y="0" height="143.999998" style="fill:#f1f1ef;fill-opacity:1;stroke:none;"/><g style="fill:#1b1b1b;fill-opacity:1;"><g transform="translate(34.519987, 114.509995)"><path style="stroke:none" d="M 36.21875 -32.296875 C 36.4375 -32.191406 36.570312 -32.03125 36.625 -31.8125 C 36.675781 -31.601562 36.640625 -31.390625 36.515625 -31.171875 C 36.484375 -31.109375 36.4375 -31.046875 36.375 -30.984375 C 36.3125 -30.921875 36.25 -30.867188 36.1875 -30.828125 C 35.925781 -30.617188 35.640625 -30.457031 35.328125 -30.34375 C 35.015625 -30.226562 34.691406 -30.113281 34.359375 -30 C 34.328125 -29.988281 34.296875 -29.976562 34.265625 -29.96875 C 34.234375 -29.957031 34.203125 -29.953125 34.171875 -29.953125 C 33.941406 -29.953125 33.785156 -30.054688 33.703125 -30.265625 C 33.628906 -30.460938 33.675781 -30.625 33.84375 -30.75 C 33.894531 -30.78125 33.941406 -30.816406 33.984375 -30.859375 C 34.035156 -30.898438 34.09375 -30.925781 34.15625 -30.9375 C 34.28125 -30.988281 34.414062 -31.039062 34.5625 -31.09375 C 34.707031 -31.144531 34.835938 -31.21875 34.953125 -31.3125 C 34.992188 -31.34375 35.066406 -31.375 35.171875 -31.40625 C 35.285156 -31.4375 35.3125 -31.46875 35.25 -31.5 C 35.15625 -31.5625 35.0625 -31.59375 34.96875 -31.59375 C 34.875 -31.59375 34.78125 -31.601562 34.6875 -31.625 C 33.4375 -31.78125 32.175781 -31.851562 30.90625 -31.84375 C 29.632812 -31.832031 28.359375 -31.8125 27.078125 -31.78125 C 26.703125 -31.769531 26.328125 -31.765625 25.953125 -31.765625 C 25.578125 -31.765625 25.203125 -31.753906 24.828125 -31.734375 C 24.015625 -31.722656 23.203125 -31.703125 22.390625 -31.671875 C 21.585938 -31.648438 20.789062 -31.617188 20 -31.578125 C 19.789062 -31.554688 19.5625 -31.582031 19.3125 -31.65625 C 19.0625 -31.738281 18.890625 -31.695312 18.796875 -31.53125 C 18.785156 -31.476562 18.765625 -31.429688 18.734375 -31.390625 C 18.703125 -31.359375 18.671875 -31.328125 18.640625 -31.296875 C 18.015625 -30.359375 17.429688 -29.394531 16.890625 -28.40625 C 16.347656 -27.425781 15.773438 -26.457031 15.171875 -25.5 C 13.140625 -22.34375 11.113281 -19.179688 9.09375 -16.015625 C 7.082031 -12.859375 5.078125 -9.6875 3.078125 -6.5 C 2.367188 -5.375 1.679688 -4.234375 1.015625 -3.078125 C 0.359375 -1.921875 -0.289062 -0.742188 -0.9375 0.453125 C -1.238281 0.992188 -1.523438 1.550781 -1.796875 2.125 C -2.066406 2.695312 -2.34375 3.265625 -2.625 3.828125 C -2.65625 3.890625 -2.703125 3.953125 -2.765625 4.015625 C -2.828125 4.085938 -2.84375 4.164062 -2.8125 4.25 C -2.78125 4.289062 -2.753906 4.332031 -2.734375 4.375 C -2.722656 4.425781 -2.710938 4.46875 -2.703125 4.5 C -2.617188 4.613281 -2.609375 4.722656 -2.671875 4.828125 C -2.765625 4.984375 -2.859375 5.128906 -2.953125 5.265625 C -3.046875 5.398438 -3.15625 5.53125 -3.28125 5.65625 C -3.34375 5.71875 -3.429688 5.765625 -3.546875 5.796875 C -3.671875 5.828125 -3.785156 5.800781 -3.890625 5.71875 C -4.003906 5.644531 -4.0625 5.535156 -4.0625 5.390625 C -4.0625 5.253906 -4.035156 5.128906 -3.984375 5.015625 C -3.910156 4.847656 -3.84375 4.6875 -3.78125 4.53125 C -3.726562 4.375 -3.664062 4.21875 -3.59375 4.0625 C -3.195312 3.320312 -2.816406 2.582031 -2.453125 1.84375 C -2.097656 1.101562 -1.726562 0.363281 -1.34375 -0.375 C -0.539062 -1.863281 0.289062 -3.335938 1.15625 -4.796875 C 2.03125 -6.253906 2.910156 -7.703125 3.796875 -9.140625 C 5.160156 -11.328125 6.515625 -13.519531 7.859375 -15.71875 C 9.210938 -17.925781 10.554688 -20.125 11.890625 -22.3125 C 12.523438 -23.375 13.175781 -24.425781 13.84375 -25.46875 C 14.507812 -26.507812 15.15625 -27.550781 15.78125 -28.59375 C 15.882812 -28.769531 15.992188 -28.953125 16.109375 -29.140625 C 16.234375 -29.328125 16.34375 -29.515625 16.4375 -29.703125 L 16.859375 -30.5625 C 16.898438 -30.65625 16.945312 -30.75 17 -30.84375 C 17.0625 -30.9375 17.113281 -31.03125 17.15625 -31.125 C 17.1875 -31.175781 17.222656 -31.234375 17.265625 -31.296875 C 17.304688 -31.367188 17.300781 -31.40625 17.25 -31.40625 C 17.113281 -31.40625 16.976562 -31.410156 16.84375 -31.421875 C 16.707031 -31.429688 16.578125 -31.425781 16.453125 -31.40625 C 16.003906 -31.363281 15.550781 -31.328125 15.09375 -31.296875 C 14.644531 -31.273438 14.191406 -31.25 13.734375 -31.21875 C 13.171875 -31.207031 12.609375 -31.171875 12.046875 -31.109375 C 11.484375 -31.054688 10.921875 -31.015625 10.359375 -30.984375 C 9.859375 -30.953125 9.351562 -30.914062 8.84375 -30.875 C 8.34375 -30.84375 7.832031 -30.800781 7.3125 -30.75 C 6.800781 -30.707031 6.285156 -30.660156 5.765625 -30.609375 C 5.253906 -30.566406 4.75 -30.53125 4.25 -30.5 C 3.78125 -30.46875 3.3125 -30.429688 2.84375 -30.390625 C 2.382812 -30.347656 1.929688 -30.304688 1.484375 -30.265625 C 1.046875 -30.210938 0.601562 -30.164062 0.15625 -30.125 C -0.28125 -30.09375 -0.71875 -30.050781 -1.15625 -30 C -1.664062 -29.9375 -2.175781 -29.878906 -2.6875 -29.828125 C -3.195312 -29.785156 -3.703125 -29.734375 -4.203125 -29.671875 C -4.679688 -29.609375 -5.160156 -29.550781 -5.640625 -29.5 C -6.128906 -29.445312 -6.617188 -29.375 -7.109375 -29.28125 C -7.171875 -29.257812 -7.226562 -29.238281 -7.28125 -29.21875 C -7.332031 -29.207031 -7.390625 -29.195312 -7.453125 -29.1875 C -7.578125 -29.15625 -7.6875 -29.140625 -7.78125 -29.140625 C -8.113281 -29.140625 -8.4375 -29.109375 -8.75 -29.046875 C -9.070312 -28.992188 -9.398438 -28.953125 -9.734375 -28.921875 C -9.921875 -28.910156 -10.101562 -28.894531 -10.28125 -28.875 C -10.457031 -28.863281 -10.632812 -28.859375 -10.8125 -28.859375 C -10.882812 -28.859375 -10.957031 -28.863281 -11.03125 -28.875 C -11.113281 -28.894531 -11.195312 -28.9375 -11.28125 -29 C -11.40625 -29.101562 -11.457031 -29.234375 -11.4375 -29.390625 C -11.425781 -29.546875 -11.34375 -29.65625 -11.1875 -29.71875 L -10.953125 -29.796875 C -10.546875 -29.929688 -10.125 -30.019531 -9.6875 -30.0625 C -9.257812 -30.113281 -8.84375 -30.171875 -8.4375 -30.234375 C -8.300781 -30.265625 -8.160156 -30.285156 -8.015625 -30.296875 C -7.878906 -30.304688 -7.738281 -30.296875 -7.59375 -30.265625 C -7.457031 -30.242188 -7.316406 -30.238281 -7.171875 -30.25 C -7.035156 -30.257812 -6.894531 -30.269531 -6.75 -30.28125 C -5.957031 -30.363281 -5.15625 -30.460938 -4.34375 -30.578125 C -3.539062 -30.691406 -2.734375 -30.789062 -1.921875 -30.875 C -0.0859375 -31.0625 1.722656 -31.222656 3.515625 -31.359375 C 4.441406 -31.441406 5.375 -31.519531 6.3125 -31.59375 C 7.25 -31.675781 8.175781 -31.75 9.09375 -31.8125 C 9.925781 -31.875 10.765625 -31.929688 11.609375 -31.984375 C 12.453125 -32.035156 13.285156 -32.085938 14.109375 -32.140625 C 14.703125 -32.171875 15.289062 -32.210938 15.875 -32.265625 C 16.46875 -32.316406 17.0625 -32.34375 17.65625 -32.34375 C 17.6875 -32.34375 17.722656 -32.332031 17.765625 -32.3125 C 17.816406 -32.289062 17.847656 -32.3125 17.859375 -32.375 C 17.953125 -32.601562 18.054688 -32.820312 18.171875 -33.03125 C 18.296875 -33.25 18.421875 -33.46875 18.546875 -33.6875 C 18.585938 -33.757812 18.628906 -33.835938 18.671875 -33.921875 C 18.722656 -34.015625 18.773438 -34.09375 18.828125 -34.15625 C 18.992188 -34.40625 19.203125 -34.472656 19.453125 -34.359375 C 19.703125 -34.253906 19.804688 -34.050781 19.765625 -33.75 C 19.734375 -33.5625 19.6875 -33.390625 19.625 -33.234375 C 19.59375 -33.160156 19.523438 -33.066406 19.421875 -32.953125 C 19.316406 -32.847656 19.238281 -32.75 19.1875 -32.65625 C 19.144531 -32.570312 19.171875 -32.507812 19.265625 -32.46875 C 19.347656 -32.4375 19.425781 -32.421875 19.5 -32.421875 C 19.582031 -32.421875 19.65625 -32.421875 19.71875 -32.421875 C 20.257812 -32.421875 20.800781 -32.4375 21.34375 -32.46875 C 21.882812 -32.5 22.421875 -32.519531 22.953125 -32.53125 C 24.304688 -32.59375 25.660156 -32.628906 27.015625 -32.640625 C 28.367188 -32.660156 29.722656 -32.65625 31.078125 -32.625 C 31.722656 -32.613281 32.363281 -32.601562 33 -32.59375 C 33.644531 -32.582031 34.28125 -32.554688 34.90625 -32.515625 C 35.0625 -32.492188 35.207031 -32.476562 35.34375 -32.46875 C 35.488281 -32.46875 35.640625 -32.453125 35.796875 -32.421875 C 35.867188 -32.398438 35.941406 -32.378906 36.015625 -32.359375 C 36.085938 -32.347656 36.15625 -32.328125 36.21875 -32.296875 Z M 36.21875 -32.296875 "/></g><g transform="translate(48.582486, 114.509995)"><path style="stroke:none" d="M -2.71875 -0.078125 C -2.894531 -0.078125 -3.035156 -0.125 -3.140625 -0.21875 C -3.253906 -0.320312 -3.3125 -0.453125 -3.3125 -0.609375 C -3.3125 -0.691406 -3.285156 -0.78125 -3.234375 -0.875 C -3.191406 -0.96875 -3.148438 -1.054688 -3.109375 -1.140625 C -3.066406 -1.222656 -3.023438 -1.304688 -2.984375 -1.390625 C -2.585938 -2.054688 -2.175781 -2.71875 -1.75 -3.375 C -1.332031 -4.03125 -0.914062 -4.695312 -0.5 -5.375 C 0.800781 -7.414062 2.101562 -9.445312 3.40625 -11.46875 C 4.71875 -13.5 6.019531 -15.53125 7.3125 -17.5625 C 8.5625 -19.507812 9.789062 -21.472656 11 -23.453125 C 12.21875 -25.441406 13.46875 -27.40625 14.75 -29.34375 C 14.789062 -29.425781 14.832031 -29.5 14.875 -29.5625 C 14.925781 -29.632812 14.96875 -29.710938 15 -29.796875 C 15.0625 -29.953125 15.128906 -30.09375 15.203125 -30.21875 C 15.273438 -30.351562 15.378906 -30.476562 15.515625 -30.59375 C 15.566406 -30.625 15.609375 -30.671875 15.640625 -30.734375 C 15.671875 -30.796875 15.703125 -30.859375 15.734375 -30.921875 L 18.640625 -35.46875 C 18.710938 -35.601562 18.800781 -35.734375 18.90625 -35.859375 C 19.007812 -35.984375 19.109375 -36.109375 19.203125 -36.234375 C 19.335938 -36.421875 19.484375 -36.515625 19.640625 -36.515625 C 19.734375 -36.515625 19.84375 -36.476562 19.96875 -36.40625 C 20.175781 -36.289062 20.28125 -36.101562 20.28125 -35.84375 C 20.28125 -35.726562 20.253906 -35.625 20.203125 -35.53125 C 20.109375 -35.34375 19.976562 -35.210938 19.8125 -35.140625 C 19.632812 -35.078125 19.492188 -34.984375 19.390625 -34.859375 C 19.296875 -34.734375 19.203125 -34.59375 19.109375 -34.4375 C 18.703125 -33.757812 18.273438 -33.101562 17.828125 -32.46875 C 17.378906 -31.84375 16.929688 -31.207031 16.484375 -30.5625 L 16.359375 -30.40625 C 16.160156 -30.101562 15.945312 -29.816406 15.71875 -29.546875 C 15.488281 -29.273438 15.28125 -28.984375 15.09375 -28.671875 C 13.925781 -26.765625 12.734375 -24.863281 11.515625 -22.96875 C 10.304688 -21.082031 9.101562 -19.1875 7.90625 -17.28125 C 6.664062 -15.34375 5.414062 -13.394531 4.15625 -11.4375 C 2.90625 -9.488281 1.65625 -7.535156 0.40625 -5.578125 C -0.0390625 -4.910156 -0.472656 -4.226562 -0.890625 -3.53125 C -1.316406 -2.832031 -1.753906 -2.140625 -2.203125 -1.453125 C -2.253906 -1.390625 -2.300781 -1.316406 -2.34375 -1.234375 C -2.394531 -1.148438 -2.421875 -1.046875 -2.421875 -0.921875 C -2.296875 -0.984375 -2.179688 -1.046875 -2.078125 -1.109375 C -1.972656 -1.179688 -1.882812 -1.25 -1.8125 -1.3125 C -1.226562 -1.832031 -0.648438 -2.363281 -0.078125 -2.90625 C 0.492188 -3.457031 1.0625 -3.988281 1.625 -4.5 C 2.195312 -5.019531 2.78125 -5.519531 3.375 -6 C 3.5625 -6.15625 3.742188 -6.300781 3.921875 -6.4375 C 4.109375 -6.582031 4.300781 -6.71875 4.5 -6.84375 C 4.59375 -6.90625 4.691406 -6.957031 4.796875 -7 C 4.910156 -7.050781 5.023438 -7.078125 5.140625 -7.078125 C 5.515625 -7.078125 5.703125 -6.90625 5.703125 -6.5625 L 5.703125 -6.375 C 5.703125 -6.28125 5.695312 -6.1875 5.6875 -6.09375 C 5.675781 -6 5.664062 -5.90625 5.65625 -5.8125 C 5.625 -5.5625 5.570312 -5.304688 5.5 -5.046875 C 5.425781 -4.796875 5.359375 -4.535156 5.296875 -4.265625 C 5.171875 -3.734375 5.109375 -3.234375 5.109375 -2.765625 C 5.109375 -2.609375 5.117188 -2.457031 5.140625 -2.3125 C 5.171875 -2.164062 5.1875 -2.015625 5.1875 -1.859375 C 5.1875 -1.796875 5.191406 -1.75 5.203125 -1.71875 C 5.296875 -1.53125 5.390625 -1.390625 5.484375 -1.296875 C 5.578125 -1.203125 5.710938 -1.15625 5.890625 -1.15625 C 6.109375 -1.15625 6.3125 -1.191406 6.5 -1.265625 C 6.6875 -1.347656 6.859375 -1.441406 7.015625 -1.546875 C 7.429688 -1.816406 7.84375 -2.101562 8.25 -2.40625 C 8.65625 -2.707031 9.023438 -3.054688 9.359375 -3.453125 C 9.609375 -3.734375 9.847656 -4.015625 10.078125 -4.296875 C 10.316406 -4.585938 10.546875 -4.882812 10.765625 -5.1875 C 10.828125 -5.257812 10.878906 -5.335938 10.921875 -5.421875 C 10.972656 -5.515625 11.019531 -5.597656 11.0625 -5.671875 C 11.15625 -5.816406 11.273438 -5.890625 11.421875 -5.890625 C 11.648438 -5.890625 11.765625 -5.78125 11.765625 -5.5625 C 11.765625 -5.507812 11.753906 -5.457031 11.734375 -5.40625 C 11.722656 -5.363281 11.710938 -5.320312 11.703125 -5.28125 C 11.679688 -5.226562 11.640625 -5.15625 11.578125 -5.0625 C 10.816406 -3.925781 9.921875 -2.921875 8.890625 -2.046875 C 8.648438 -1.835938 8.410156 -1.648438 8.171875 -1.484375 C 7.941406 -1.328125 7.703125 -1.160156 7.453125 -0.984375 C 7.296875 -0.878906 7.125 -0.78125 6.9375 -0.6875 C 6.75 -0.59375 6.554688 -0.53125 6.359375 -0.5 C 6.296875 -0.476562 6.222656 -0.460938 6.140625 -0.453125 C 6.066406 -0.453125 5.988281 -0.453125 5.90625 -0.453125 C 5.21875 -0.453125 4.773438 -0.765625 4.578125 -1.390625 C 4.460938 -1.734375 4.40625 -2.113281 4.40625 -2.53125 C 4.40625 -3.03125 4.460938 -3.519531 4.578125 -4 C 4.703125 -4.476562 4.8125 -4.957031 4.90625 -5.4375 L 5.015625 -6.046875 C 5.035156 -6.078125 5.039062 -6.113281 5.03125 -6.15625 C 5.019531 -6.195312 5.015625 -6.25 5.015625 -6.3125 C 4.910156 -6.28125 4.816406 -6.234375 4.734375 -6.171875 C 4.660156 -6.117188 4.582031 -6.0625 4.5 -6 C 4.113281 -5.65625 3.71875 -5.316406 3.3125 -4.984375 C 2.914062 -4.660156 2.523438 -4.320312 2.140625 -3.96875 C 1.648438 -3.507812 1.15625 -3.050781 0.65625 -2.59375 C 0.15625 -2.144531 -0.34375 -1.695312 -0.84375 -1.25 C -1 -1.101562 -1.160156 -0.96875 -1.328125 -0.84375 C -1.492188 -0.71875 -1.65625 -0.59375 -1.8125 -0.46875 C -1.882812 -0.40625 -1.96875 -0.351562 -2.0625 -0.3125 C -2.15625 -0.28125 -2.25 -0.234375 -2.34375 -0.171875 C -2.457031 -0.109375 -2.582031 -0.078125 -2.71875 -0.078125 Z M -2.71875 -0.078125 "/></g><g transform="translate(60.019986, 114.509995)"><path style="stroke:none" d="M 1.6875 -1.359375 C 1.332031 -1.359375 0.972656 -1.40625 0.609375 -1.5 C 0.0859375 -1.644531 -0.3125 -1.898438 -0.59375 -2.265625 C -0.882812 -2.628906 -1.03125 -3.070312 -1.03125 -3.59375 C -1.03125 -3.90625 -0.984375 -4.21875 -0.890625 -4.53125 C -0.796875 -4.84375 -0.679688 -5.140625 -0.546875 -5.421875 C -0.0351562 -6.390625 0.644531 -7.203125 1.5 -7.859375 C 1.59375 -7.929688 1.6875 -7.992188 1.78125 -8.046875 C 1.875 -8.109375 1.976562 -8.15625 2.09375 -8.1875 C 2.1875 -8.21875 2.265625 -8.234375 2.328125 -8.234375 C 2.648438 -8.234375 2.8125 -8.050781 2.8125 -7.6875 C 2.8125 -7.457031 2.75 -7.234375 2.625 -7.015625 C 2.050781 -5.960938 1.222656 -5.1875 0.140625 -4.6875 L -0.171875 -4.546875 C -0.273438 -4.265625 -0.328125 -3.96875 -0.328125 -3.65625 C -0.328125 -3 -0.0507812 -2.539062 0.5 -2.28125 C 0.625 -2.21875 0.75 -2.171875 0.875 -2.140625 C 1.007812 -2.117188 1.140625 -2.101562 1.265625 -2.09375 C 1.671875 -2.0625 2.066406 -2.078125 2.453125 -2.140625 C 2.835938 -2.203125 3.207031 -2.300781 3.5625 -2.4375 C 4.5 -2.800781 5.378906 -3.238281 6.203125 -3.75 C 7.035156 -4.269531 7.8125 -4.863281 8.53125 -5.53125 C 8.582031 -5.59375 8.625 -5.648438 8.65625 -5.703125 C 8.695312 -5.765625 8.75 -5.816406 8.8125 -5.859375 C 8.894531 -5.953125 8.988281 -6 9.09375 -6 C 9.175781 -6 9.25 -5.976562 9.3125 -5.9375 C 9.414062 -5.84375 9.46875 -5.738281 9.46875 -5.625 C 9.46875 -5.5625 9.445312 -5.492188 9.40625 -5.421875 C 9.28125 -5.234375 9.15625 -5.09375 9.03125 -5 C 8.320312 -4.414062 7.59375 -3.867188 6.84375 -3.359375 C 6.09375 -2.859375 5.296875 -2.410156 4.453125 -2.015625 C 4.203125 -1.910156 3.941406 -1.8125 3.671875 -1.71875 C 3.398438 -1.625 3.125 -1.546875 2.84375 -1.484375 C 2.65625 -1.453125 2.460938 -1.421875 2.265625 -1.390625 C 2.066406 -1.367188 1.875 -1.359375 1.6875 -1.359375 Z M 0.546875 -5.796875 C 0.765625 -5.890625 1.003906 -6.078125 1.265625 -6.359375 C 1.535156 -6.640625 1.734375 -6.910156 1.859375 -7.171875 C 1.648438 -7.066406 1.410156 -6.863281 1.140625 -6.5625 C 0.867188 -6.269531 0.671875 -6.015625 0.546875 -5.796875 Z M 0.546875 -5.796875 "/></g><g transform="translate(69.207485, 114.509995)"><path style="stroke:none" d="M 10.828125 -8.75 C 10.878906 -8.445312 10.84375 -8.164062 10.71875 -7.90625 C 10.625 -7.726562 10.488281 -7.632812 10.3125 -7.625 C 10.207031 -7.625 10.125 -7.664062 10.0625 -7.75 C 10 -7.832031 9.972656 -7.929688 9.984375 -8.046875 C 10.003906 -8.078125 10.019531 -8.109375 10.03125 -8.140625 C 10.050781 -8.171875 10.066406 -8.203125 10.078125 -8.234375 C 10.097656 -8.273438 10.109375 -8.316406 10.109375 -8.359375 C 10.117188 -8.398438 10.125 -8.453125 10.125 -8.515625 C 10.144531 -8.648438 10.128906 -8.753906 10.078125 -8.828125 C 10.035156 -8.910156 9.925781 -8.96875 9.75 -9 C 9.613281 -9.082031 9.453125 -9.109375 9.265625 -9.078125 C 8.960938 -9.078125 8.671875 -9.046875 8.390625 -8.984375 C 8.109375 -8.929688 7.820312 -8.859375 7.53125 -8.765625 C 7.101562 -8.628906 6.691406 -8.46875 6.296875 -8.28125 C 5.898438 -8.09375 5.515625 -7.890625 5.140625 -7.671875 C 3.617188 -6.796875 2.203125 -5.800781 0.890625 -4.6875 C -0.421875 -3.582031 -1.601562 -2.316406 -2.65625 -0.890625 L -2.984375 -0.5 C -2.992188 -0.445312 -3.019531 -0.410156 -3.0625 -0.390625 C -3.113281 -0.367188 -3.164062 -0.34375 -3.21875 -0.3125 C -3.320312 -0.28125 -3.414062 -0.289062 -3.5 -0.34375 C -3.59375 -0.394531 -3.644531 -0.476562 -3.65625 -0.59375 C -3.65625 -0.6875 -3.625 -0.796875 -3.5625 -0.921875 C -3.519531 -0.992188 -3.46875 -1.078125 -3.40625 -1.171875 C -3.351562 -1.265625 -3.296875 -1.34375 -3.234375 -1.40625 C -2.671875 -2.332031 -2.097656 -3.25 -1.515625 -4.15625 C -0.941406 -5.0625 -0.363281 -5.96875 0.21875 -6.875 C 0.25 -6.90625 0.273438 -6.945312 0.296875 -7 C 0.316406 -7.050781 0.34375 -7.101562 0.375 -7.15625 C 0.457031 -7.289062 0.535156 -7.429688 0.609375 -7.578125 C 0.691406 -7.734375 0.78125 -7.875 0.875 -8 C 1.039062 -8.25 1.210938 -8.484375 1.390625 -8.703125 C 1.578125 -8.929688 1.75 -9.15625 1.90625 -9.375 C 1.9375 -9.425781 1.96875 -9.472656 2 -9.515625 C 2.039062 -9.566406 2.085938 -9.609375 2.140625 -9.640625 C 2.273438 -9.765625 2.429688 -9.78125 2.609375 -9.6875 C 2.765625 -9.5625 2.816406 -9.410156 2.765625 -9.234375 C 2.753906 -9.171875 2.734375 -9.097656 2.703125 -9.015625 C 2.671875 -8.941406 2.628906 -8.867188 2.578125 -8.796875 C 2.390625 -8.546875 2.203125 -8.28125 2.015625 -8 C 1.828125 -7.71875 1.640625 -7.441406 1.453125 -7.171875 C 1.347656 -7.015625 1.28125 -6.882812 1.25 -6.78125 C 1.226562 -6.75 1.207031 -6.71875 1.1875 -6.6875 C 1.175781 -6.65625 1.164062 -6.625 1.15625 -6.59375 C 0.664062 -5.96875 0.191406 -5.332031 -0.265625 -4.6875 C -0.273438 -4.6875 -0.28125 -4.675781 -0.28125 -4.65625 C -0.28125 -4.644531 -0.289062 -4.632812 -0.3125 -4.625 C -0.28125 -4.59375 -0.265625 -4.578125 -0.265625 -4.578125 C -0.203125 -4.617188 -0.144531 -4.660156 -0.09375 -4.703125 C -0.0507812 -4.742188 -0.0078125 -4.785156 0.03125 -4.828125 C 0.820312 -5.515625 1.640625 -6.160156 2.484375 -6.765625 C 3.328125 -7.378906 4.21875 -7.929688 5.15625 -8.421875 C 5.5625 -8.640625 5.972656 -8.84375 6.390625 -9.03125 C 6.804688 -9.226562 7.25 -9.390625 7.71875 -9.515625 C 8 -9.597656 8.28125 -9.660156 8.5625 -9.703125 C 8.851562 -9.753906 9.148438 -9.769531 9.453125 -9.75 C 9.578125 -9.75 9.6875 -9.734375 9.78125 -9.703125 C 9.882812 -9.671875 9.992188 -9.640625 10.109375 -9.609375 C 10.515625 -9.472656 10.753906 -9.1875 10.828125 -8.75 Z M 10.828125 -8.75 "/></g><g transform="translate(80.293422, 114.509995)"><path style="stroke:none" d="M 6.078125 -2.0625 C 5.671875 -2.0625 5.328125 -2.15625 5.046875 -2.34375 C 4.765625 -2.53125 4.550781 -2.78125 4.40625 -3.09375 C 4.3125 -3.3125 4.238281 -3.523438 4.1875 -3.734375 C 4.132812 -3.953125 4.109375 -4.171875 4.109375 -4.390625 L 4.109375 -5.28125 C 4.015625 -5.375 3.941406 -5.453125 3.890625 -5.515625 C 3.847656 -5.578125 3.828125 -5.644531 3.828125 -5.71875 C 3.828125 -5.75 3.828125 -5.785156 3.828125 -5.828125 C 3.835938 -5.878906 3.851562 -5.9375 3.875 -6 C 3.90625 -6.125 3.941406 -6.265625 3.984375 -6.421875 C 4.035156 -6.578125 4.082031 -6.742188 4.125 -6.921875 C 4.0625 -6.859375 4.007812 -6.8125 3.96875 -6.78125 C 3.9375 -6.75 3.90625 -6.71875 3.875 -6.6875 C 3.59375 -6.40625 3.328125 -6.109375 3.078125 -5.796875 C 2.835938 -5.492188 2.59375 -5.195312 2.34375 -4.90625 C 2.15625 -4.6875 1.957031 -4.460938 1.75 -4.234375 C 1.550781 -4.003906 1.34375 -3.78125 1.125 -3.5625 C 0.96875 -3.40625 0.804688 -3.269531 0.640625 -3.15625 C 0.484375 -3.039062 0.316406 -2.910156 0.140625 -2.765625 C 0.0664062 -2.703125 -0.0234375 -2.644531 -0.140625 -2.59375 C -0.253906 -2.539062 -0.375 -2.5 -0.5 -2.46875 C -0.53125 -2.445312 -0.566406 -2.4375 -0.609375 -2.4375 C -0.660156 -2.4375 -0.703125 -2.4375 -0.734375 -2.4375 C -0.921875 -2.4375 -1.070312 -2.503906 -1.1875 -2.640625 C -1.300781 -2.785156 -1.359375 -2.960938 -1.359375 -3.171875 C -1.359375 -3.296875 -1.34375 -3.421875 -1.3125 -3.546875 C -1.28125 -3.679688 -1.242188 -3.804688 -1.203125 -3.921875 C -1.023438 -4.335938 -0.820312 -4.753906 -0.59375 -5.171875 C -0.375 -5.585938 -0.132812 -5.984375 0.125 -6.359375 C 0.375 -6.710938 0.644531 -7.039062 0.9375 -7.34375 C 1.238281 -7.65625 1.546875 -7.941406 1.859375 -8.203125 C 2.023438 -8.347656 2.203125 -8.484375 2.390625 -8.609375 C 2.578125 -8.734375 2.773438 -8.84375 2.984375 -8.9375 C 3.085938 -8.976562 3.195312 -9.019531 3.3125 -9.0625 C 3.4375 -9.101562 3.550781 -9.128906 3.65625 -9.140625 C 3.71875 -9.160156 3.769531 -9.171875 3.8125 -9.171875 C 3.863281 -9.179688 3.914062 -9.1875 3.96875 -9.1875 C 4.101562 -9.1875 4.234375 -9.171875 4.359375 -9.140625 C 4.484375 -9.109375 4.601562 -9.039062 4.71875 -8.9375 L 4.8125 -8.84375 L 4.859375 -8.8125 L 5.140625 -8.953125 C 5.171875 -8.972656 5.207031 -8.984375 5.25 -8.984375 C 5.488281 -8.984375 5.609375 -8.863281 5.609375 -8.625 C 5.609375 -8.5625 5.597656 -8.488281 5.578125 -8.40625 C 5.566406 -8.332031 5.546875 -8.257812 5.515625 -8.1875 C 5.421875 -7.914062 5.335938 -7.644531 5.265625 -7.375 C 5.191406 -7.101562 5.117188 -6.828125 5.046875 -6.546875 C 4.960938 -6.203125 4.90625 -5.847656 4.875 -5.484375 C 4.84375 -5.128906 4.828125 -4.769531 4.828125 -4.40625 C 4.828125 -4.082031 4.882812 -3.78125 5 -3.5 C 5.195312 -3.007812 5.5625 -2.765625 6.09375 -2.765625 C 6.269531 -2.765625 6.4375 -2.773438 6.59375 -2.796875 C 6.75 -2.828125 6.90625 -2.878906 7.0625 -2.953125 C 7.1875 -3.035156 7.316406 -3.109375 7.453125 -3.171875 C 7.597656 -3.234375 7.738281 -3.300781 7.875 -3.375 C 8.332031 -3.644531 8.757812 -3.9375 9.15625 -4.25 C 9.550781 -4.570312 9.9375 -4.921875 10.3125 -5.296875 C 10.375 -5.359375 10.425781 -5.414062 10.46875 -5.46875 C 10.519531 -5.53125 10.53125 -5.613281 10.5 -5.71875 C 10.488281 -5.71875 10.484375 -5.734375 10.484375 -5.765625 C 10.484375 -5.816406 10.507812 -5.851562 10.5625 -5.875 C 10.613281 -5.894531 10.65625 -5.921875 10.6875 -5.953125 C 10.71875 -5.984375 10.773438 -6 10.859375 -6 C 10.960938 -6 11.054688 -5.957031 11.140625 -5.875 C 11.234375 -5.800781 11.28125 -5.710938 11.28125 -5.609375 C 11.28125 -5.460938 11.238281 -5.335938 11.15625 -5.234375 C 11.113281 -5.171875 11.066406 -5.109375 11.015625 -5.046875 C 10.972656 -4.992188 10.925781 -4.945312 10.875 -4.90625 C 10.488281 -4.507812 10.09375 -4.15625 9.6875 -3.84375 C 9.28125 -3.53125 8.847656 -3.21875 8.390625 -2.90625 C 8.128906 -2.71875 7.847656 -2.546875 7.546875 -2.390625 C 7.253906 -2.234375 6.941406 -2.140625 6.609375 -2.109375 C 6.515625 -2.097656 6.425781 -2.085938 6.34375 -2.078125 C 6.257812 -2.066406 6.171875 -2.0625 6.078125 -2.0625 Z M -0.640625 -3.140625 C -0.585938 -3.140625 -0.53125 -3.15625 -0.46875 -3.1875 C -0.363281 -3.238281 -0.265625 -3.296875 -0.171875 -3.359375 C -0.078125 -3.429688 0.0195312 -3.5 0.125 -3.5625 C 0.34375 -3.71875 0.53125 -3.878906 0.6875 -4.046875 C 0.851562 -4.222656 1.023438 -4.414062 1.203125 -4.625 C 1.703125 -5.195312 2.242188 -5.75 2.828125 -6.28125 C 3.410156 -6.8125 3.875 -7.421875 4.21875 -8.109375 C 4.238281 -8.140625 4.253906 -8.171875 4.265625 -8.203125 C 4.285156 -8.234375 4.285156 -8.273438 4.265625 -8.328125 C 4.234375 -8.421875 4.164062 -8.46875 4.0625 -8.46875 C 3.976562 -8.46875 3.890625 -8.453125 3.796875 -8.421875 C 3.703125 -8.398438 3.617188 -8.375 3.546875 -8.34375 C 3.429688 -8.3125 3.316406 -8.269531 3.203125 -8.21875 C 3.097656 -8.164062 2.984375 -8.097656 2.859375 -8.015625 C 2.691406 -7.910156 2.523438 -7.789062 2.359375 -7.65625 C 2.191406 -7.519531 2.03125 -7.375 1.875 -7.21875 C 1.46875 -6.8125 1.085938 -6.390625 0.734375 -5.953125 C 0.390625 -5.515625 0.0820312 -5.039062 -0.1875 -4.53125 C -0.269531 -4.375 -0.34375 -4.210938 -0.40625 -4.046875 C -0.476562 -3.878906 -0.546875 -3.710938 -0.609375 -3.546875 C -0.640625 -3.453125 -0.65625 -3.375 -0.65625 -3.3125 C -0.65625 -3.25 -0.648438 -3.191406 -0.640625 -3.140625 Z M -0.640625 -3.140625 "/></g><g transform="translate(91.262171, 114.509995)"><path style="stroke:none" d="M -13.6875 22.671875 C -13.75 22.671875 -13.800781 22.664062 -13.84375 22.65625 C -13.894531 22.644531 -13.953125 22.632812 -14.015625 22.625 C -14.128906 22.570312 -14.210938 22.507812 -14.265625 22.4375 C -14.316406 22.375 -14.367188 22.285156 -14.421875 22.171875 C -14.484375 22.035156 -14.515625 21.875 -14.515625 21.6875 C -14.515625 21.632812 -14.515625 21.582031 -14.515625 21.53125 C -14.515625 21.476562 -14.503906 21.425781 -14.484375 21.375 C -14.359375 20.832031 -14.21875 20.328125 -14.0625 19.859375 C -13.832031 19.171875 -13.566406 18.492188 -13.265625 17.828125 C -12.972656 17.160156 -12.671875 16.5 -12.359375 15.84375 C -11.648438 14.394531 -10.921875 12.957031 -10.171875 11.53125 C -9.421875 10.113281 -8.648438 8.703125 -7.859375 7.296875 C -6.890625 5.585938 -5.910156 3.894531 -4.921875 2.21875 C -3.941406 0.550781 -2.972656 -1.132812 -2.015625 -2.84375 C -1.753906 -3.289062 -1.484375 -3.734375 -1.203125 -4.171875 C -0.929688 -4.609375 -0.679688 -5.0625 -0.453125 -5.53125 C -0.398438 -5.625 -0.347656 -5.722656 -0.296875 -5.828125 C -0.242188 -5.929688 -0.234375 -6.0625 -0.265625 -6.21875 C -0.304688 -6.25 -0.347656 -6.269531 -0.390625 -6.28125 C -0.441406 -6.300781 -0.484375 -6.316406 -0.515625 -6.328125 C -0.722656 -6.472656 -0.796875 -6.660156 -0.734375 -6.890625 C -0.703125 -7.003906 -0.648438 -7.09375 -0.578125 -7.15625 C -0.503906 -7.21875 -0.4375 -7.28125 -0.375 -7.34375 C -0.238281 -7.46875 -0.0976562 -7.578125 0.046875 -7.671875 C 0.191406 -7.773438 0.34375 -7.859375 0.5 -7.921875 C 0.757812 -8.035156 0.976562 -8.179688 1.15625 -8.359375 C 1.34375 -8.535156 1.5 -8.742188 1.625 -8.984375 C 1.84375 -9.390625 2.078125 -9.78125 2.328125 -10.15625 C 2.578125 -10.53125 2.816406 -10.910156 3.046875 -11.296875 C 3.078125 -11.359375 3.113281 -11.414062 3.15625 -11.46875 C 3.207031 -11.53125 3.257812 -11.59375 3.3125 -11.65625 C 3.4375 -11.75 3.546875 -11.796875 3.640625 -11.796875 C 3.703125 -11.796875 3.765625 -11.78125 3.828125 -11.75 C 4.023438 -11.632812 4.078125 -11.460938 3.984375 -11.234375 C 3.972656 -11.171875 3.953125 -11.109375 3.921875 -11.046875 C 3.890625 -10.984375 3.859375 -10.921875 3.828125 -10.859375 L 2.984375 -9.328125 L 2.8125 -9 C 2.894531 -9.019531 2.957031 -9.03125 3 -9.03125 C 3.050781 -9.03125 3.097656 -9.035156 3.140625 -9.046875 C 3.640625 -9.171875 4.128906 -9.296875 4.609375 -9.421875 C 5.085938 -9.546875 5.578125 -9.648438 6.078125 -9.734375 C 6.296875 -9.765625 6.507812 -9.796875 6.71875 -9.828125 C 6.925781 -9.859375 7.132812 -9.875 7.34375 -9.875 C 7.46875 -9.875 7.59375 -9.863281 7.71875 -9.84375 C 7.84375 -9.832031 7.957031 -9.8125 8.0625 -9.78125 C 8.1875 -9.757812 8.300781 -9.726562 8.40625 -9.6875 C 8.519531 -9.65625 8.632812 -9.609375 8.75 -9.546875 C 9.007812 -9.398438 9.207031 -9.203125 9.34375 -8.953125 C 9.476562 -8.703125 9.503906 -8.429688 9.421875 -8.140625 C 9.359375 -7.835938 9.25 -7.539062 9.09375 -7.25 C 8.957031 -6.96875 8.800781 -6.703125 8.625 -6.453125 C 8.457031 -6.203125 8.269531 -5.96875 8.0625 -5.75 C 7.738281 -5.382812 7.398438 -5.035156 7.046875 -4.703125 C 6.691406 -4.367188 6.335938 -4.035156 5.984375 -3.703125 C 5.171875 -2.984375 4.328125 -2.300781 3.453125 -1.65625 C 2.578125 -1.007812 1.6875 -0.382812 0.78125 0.21875 C 0.195312 0.601562 -0.394531 0.976562 -1 1.34375 C -1.601562 1.71875 -2.207031 2.082031 -2.8125 2.4375 C -2.925781 2.5 -3.046875 2.566406 -3.171875 2.640625 C -3.296875 2.710938 -3.421875 2.769531 -3.546875 2.8125 C -3.648438 2.863281 -3.78125 2.890625 -3.9375 2.890625 L -3.984375 2.890625 C -4.171875 2.890625 -4.265625 2.8125 -4.265625 2.65625 L -4.265625 2.578125 C -4.265625 2.441406 -4.203125 2.347656 -4.078125 2.296875 C -3.203125 1.941406 -2.378906 1.5 -1.609375 0.96875 C -0.847656 0.445312 -0.0820312 -0.0625 0.6875 -0.5625 C 1.46875 -1.0625 2.222656 -1.59375 2.953125 -2.15625 C 3.691406 -2.71875 4.410156 -3.296875 5.109375 -3.890625 C 5.628906 -4.347656 6.125 -4.8125 6.59375 -5.28125 C 7.0625 -5.757812 7.488281 -6.265625 7.875 -6.796875 C 8 -6.972656 8.113281 -7.148438 8.21875 -7.328125 C 8.320312 -7.503906 8.425781 -7.6875 8.53125 -7.875 C 8.644531 -8.0625 8.703125 -8.257812 8.703125 -8.46875 L 8.703125 -8.515625 C 8.703125 -8.679688 8.613281 -8.804688 8.4375 -8.890625 C 8.28125 -8.960938 8.117188 -9.007812 7.953125 -9.03125 C 7.859375 -9.039062 7.765625 -9.050781 7.671875 -9.0625 C 7.585938 -9.070312 7.5 -9.078125 7.40625 -9.078125 C 7.113281 -9.078125 6.8125 -9.050781 6.5 -9 C 5.8125 -8.894531 5.125 -8.757812 4.4375 -8.59375 C 3.757812 -8.425781 3.09375 -8.210938 2.4375 -7.953125 C 2.28125 -7.890625 2.140625 -7.8125 2.015625 -7.71875 C 1.890625 -7.632812 1.78125 -7.523438 1.6875 -7.390625 C 1.59375 -7.234375 1.484375 -7.085938 1.359375 -6.953125 C 1.234375 -6.816406 1.132812 -6.664062 1.0625 -6.5 C 0.9375 -6.25 0.796875 -6.003906 0.640625 -5.765625 C 0.492188 -5.535156 0.34375 -5.300781 0.1875 -5.0625 C 0.03125 -4.832031 -0.117188 -4.597656 -0.265625 -4.359375 C -0.421875 -4.128906 -0.566406 -3.894531 -0.703125 -3.65625 C -0.859375 -3.40625 -1.007812 -3.164062 -1.15625 -2.9375 C -1.3125 -2.71875 -1.457031 -2.484375 -1.59375 -2.234375 C -1.738281 -1.984375 -1.882812 -1.738281 -2.03125 -1.5 C -2.175781 -1.269531 -2.320312 -1.035156 -2.46875 -0.796875 C -3.820312 1.472656 -5.160156 3.75 -6.484375 6.03125 C -7.804688 8.3125 -9.0625 10.625 -10.25 12.96875 C -10.726562 13.9375 -11.207031 14.90625 -11.6875 15.875 C -12.175781 16.84375 -12.625 17.832031 -13.03125 18.84375 C -13.1875 19.21875 -13.332031 19.585938 -13.46875 19.953125 C -13.613281 20.328125 -13.726562 20.71875 -13.8125 21.125 C -13.820312 21.226562 -13.832031 21.335938 -13.84375 21.453125 C -13.851562 21.578125 -13.859375 21.703125 -13.859375 21.828125 C -13.859375 21.992188 -13.769531 22.0625 -13.59375 22.03125 L -13.171875 21.96875 C -13.109375 21.96875 -13.0625 21.984375 -13.03125 22.015625 C -13 22.054688 -12.960938 22.101562 -12.921875 22.15625 C -12.898438 22.164062 -12.890625 22.1875 -12.890625 22.21875 C -12.890625 22.3125 -12.929688 22.382812 -13.015625 22.4375 C -13.242188 22.59375 -13.46875 22.671875 -13.6875 22.671875 Z M -13.6875 22.671875 "/></g><g transform="translate(101.879358, 114.509995)"><path style="stroke:none" d="M -18.125 28.53125 C -18.90625 28.53125 -19.390625 28.128906 -19.578125 27.328125 C -19.671875 26.921875 -19.691406 26.515625 -19.640625 26.109375 C -19.566406 25.566406 -19.453125 25.03125 -19.296875 24.5 C -19.148438 23.976562 -18.976562 23.46875 -18.78125 22.96875 C -18.195312 21.613281 -17.492188 20.296875 -16.671875 19.015625 C -16.046875 18.046875 -15.390625 17.113281 -14.703125 16.21875 C -14.015625 15.332031 -13.296875 14.457031 -12.546875 13.59375 C -11.203125 12.0625 -9.820312 10.585938 -8.40625 9.171875 C -6.988281 7.765625 -5.523438 6.394531 -4.015625 5.0625 C -2.804688 4.019531 -1.5625 3.015625 -0.28125 2.046875 C 0.988281 1.085938 2.285156 0.175781 3.609375 -0.6875 C 3.910156 -0.875 4.144531 -1.140625 4.3125 -1.484375 C 4.9375 -2.710938 5.566406 -3.9375 6.203125 -5.15625 C 6.835938 -6.375 7.421875 -7.617188 7.953125 -8.890625 L 8.09375 -9.21875 C 8.0625 -9.257812 8.035156 -9.269531 8.015625 -9.25 C 8.003906 -9.226562 7.984375 -9.207031 7.953125 -9.1875 C 7.921875 -9.175781 7.878906 -9.144531 7.828125 -9.09375 C 7.066406 -8.332031 6.265625 -7.617188 5.421875 -6.953125 C 4.578125 -6.285156 3.734375 -5.609375 2.890625 -4.921875 C 2.523438 -4.628906 2.15625 -4.34375 1.78125 -4.0625 C 1.40625 -3.78125 1.03125 -3.488281 0.65625 -3.1875 C 0.457031 -3.03125 0.253906 -2.882812 0.046875 -2.75 C -0.160156 -2.625 -0.375 -2.503906 -0.59375 -2.390625 C -0.6875 -2.347656 -0.78125 -2.3125 -0.875 -2.28125 C -0.96875 -2.25 -1.078125 -2.234375 -1.203125 -2.234375 C -1.617188 -2.234375 -1.828125 -2.4375 -1.828125 -2.84375 C -1.828125 -2.9375 -1.8125 -3.035156 -1.78125 -3.140625 C -1.75 -3.253906 -1.71875 -3.359375 -1.6875 -3.453125 C -1.625 -3.585938 -1.5625 -3.722656 -1.5 -3.859375 C -1.4375 -4.003906 -1.375 -4.140625 -1.3125 -4.265625 C -0.863281 -5.097656 -0.363281 -5.878906 0.1875 -6.609375 L 2.015625 -9.078125 C 2.140625 -9.242188 2.273438 -9.410156 2.421875 -9.578125 C 2.578125 -9.753906 2.738281 -9.898438 2.90625 -10.015625 C 2.988281 -10.054688 3.066406 -10.097656 3.140625 -10.140625 C 3.222656 -10.179688 3.3125 -10.203125 3.40625 -10.203125 C 3.539062 -10.203125 3.660156 -10.15625 3.765625 -10.0625 C 3.867188 -9.976562 3.921875 -9.875 3.921875 -9.75 L 3.921875 -9.640625 C 3.921875 -9.453125 3.890625 -9.285156 3.828125 -9.140625 C 3.554688 -8.503906 3.195312 -7.9375 2.75 -7.4375 C 2.570312 -7.25 2.414062 -7.15625 2.28125 -7.15625 C 2.226562 -7.15625 2.175781 -7.15625 2.125 -7.15625 C 2.070312 -7.164062 2.003906 -7.179688 1.921875 -7.203125 C 1.410156 -6.554688 0.890625 -5.90625 0.359375 -5.25 C -0.160156 -4.59375 -0.617188 -3.867188 -1.015625 -3.078125 L -0.75 -3.171875 C -0.582031 -3.273438 -0.40625 -3.378906 -0.21875 -3.484375 C -0.0390625 -3.597656 0.125 -3.71875 0.28125 -3.84375 C 0.832031 -4.269531 1.375 -4.691406 1.90625 -5.109375 C 2.445312 -5.535156 2.984375 -5.96875 3.515625 -6.40625 C 4.253906 -7 4.992188 -7.59375 5.734375 -8.1875 C 6.472656 -8.789062 7.179688 -9.429688 7.859375 -10.109375 C 7.929688 -10.179688 8.007812 -10.25 8.09375 -10.3125 C 8.1875 -10.375 8.265625 -10.4375 8.328125 -10.5 C 8.429688 -10.613281 8.53125 -10.691406 8.625 -10.734375 C 8.71875 -10.785156 8.8125 -10.8125 8.90625 -10.8125 C 9.019531 -10.8125 9.109375 -10.78125 9.171875 -10.71875 C 9.296875 -10.59375 9.359375 -10.46875 9.359375 -10.34375 C 9.359375 -10.226562 9.332031 -10.113281 9.28125 -10 C 9.238281 -9.882812 9.191406 -9.769531 9.140625 -9.65625 L 8.5625 -8.4375 C 8.070312 -7.40625 7.5625 -6.378906 7.03125 -5.359375 C 6.5 -4.347656 5.984375 -3.335938 5.484375 -2.328125 C 5.441406 -2.265625 5.398438 -2.1875 5.359375 -2.09375 C 5.316406 -2.007812 5.28125 -1.929688 5.25 -1.859375 L 5.328125 -1.78125 C 5.398438 -1.832031 5.472656 -1.878906 5.546875 -1.921875 C 5.617188 -1.972656 5.691406 -2.019531 5.765625 -2.0625 C 6.859375 -2.6875 7.957031 -3.300781 9.0625 -3.90625 C 10.164062 -4.507812 11.269531 -5.113281 12.375 -5.71875 C 12.5 -5.800781 12.628906 -5.867188 12.765625 -5.921875 C 12.910156 -5.972656 13.054688 -6.03125 13.203125 -6.09375 C 13.328125 -6.144531 13.4375 -6.160156 13.53125 -6.140625 C 13.664062 -6.109375 13.757812 -6.03125 13.8125 -5.90625 L 13.8125 -5.84375 C 13.8125 -5.726562 13.765625 -5.632812 13.671875 -5.5625 L 13.4375 -5.421875 C 13.21875 -5.328125 13 -5.234375 12.78125 -5.140625 C 12.5625 -5.046875 12.34375 -4.941406 12.125 -4.828125 C 10.90625 -4.222656 9.703125 -3.59375 8.515625 -2.9375 C 7.335938 -2.28125 6.171875 -1.582031 5.015625 -0.84375 C 4.765625 -0.6875 4.570312 -0.46875 4.4375 -0.1875 C 3.78125 1.125 3.125 2.425781 2.46875 3.71875 C 1.8125 5.019531 1.128906 6.320312 0.421875 7.625 C -0.734375 9.75 -1.96875 11.8125 -3.28125 13.8125 C -4.59375 15.8125 -6.023438 17.738281 -7.578125 19.59375 C -9.054688 21.375 -10.617188 23.078125 -12.265625 24.703125 C -12.742188 25.171875 -13.234375 25.625 -13.734375 26.0625 C -14.234375 26.5 -14.757812 26.90625 -15.3125 27.28125 C -15.53125 27.4375 -15.753906 27.582031 -15.984375 27.71875 C -16.222656 27.851562 -16.457031 27.988281 -16.6875 28.125 C -16.84375 28.21875 -17.015625 28.296875 -17.203125 28.359375 C -17.390625 28.421875 -17.578125 28.46875 -17.765625 28.5 C -17.828125 28.519531 -17.882812 28.53125 -17.9375 28.53125 C -18 28.53125 -18.0625 28.53125 -18.125 28.53125 Z M -18.09375 27.828125 C -17.8125 27.828125 -17.535156 27.769531 -17.265625 27.65625 C -17.003906 27.550781 -16.75 27.425781 -16.5 27.28125 C -16.09375 27.050781 -15.707031 26.800781 -15.34375 26.53125 C -14.976562 26.269531 -14.625 25.988281 -14.28125 25.6875 C -13.46875 25 -12.691406 24.285156 -11.953125 23.546875 C -11.222656 22.816406 -10.515625 22.0625 -9.828125 21.28125 C -8.203125 19.457031 -6.6875 17.5625 -5.28125 15.59375 C -3.875 13.625 -2.5625 11.578125 -1.34375 9.453125 C -0.507812 7.992188 0.285156 6.519531 1.046875 5.03125 C 1.816406 3.539062 2.578125 2.046875 3.328125 0.546875 L 3.40625 0.328125 C 3.40625 0.316406 3.390625 0.296875 3.359375 0.265625 L 3.078125 0.453125 C 2.109375 1.109375 1.148438 1.789062 0.203125 2.5 C -0.734375 3.207031 -1.65625 3.929688 -2.5625 4.671875 C -3.726562 5.617188 -4.859375 6.613281 -5.953125 7.65625 C -7.046875 8.695312 -8.117188 9.765625 -9.171875 10.859375 C -10.046875 11.773438 -10.90625 12.71875 -11.75 13.6875 C -12.59375 14.65625 -13.40625 15.648438 -14.1875 16.671875 C -14.8125 17.492188 -15.40625 18.347656 -15.96875 19.234375 C -16.53125 20.117188 -17.050781 21.03125 -17.53125 21.96875 C -17.800781 22.5 -18.046875 23.03125 -18.265625 23.5625 C -18.484375 24.101562 -18.65625 24.671875 -18.78125 25.265625 C -18.820312 25.472656 -18.859375 25.675781 -18.890625 25.875 C -18.921875 26.082031 -18.9375 26.296875 -18.9375 26.515625 C -18.9375 27.390625 -18.65625 27.828125 -18.09375 27.828125 Z M -18.09375 27.828125 "/></g></g><g style="fill:#000000;fill-opacity:1;"><g transform="translate(1.524963, 35.74999)"><path style="stroke:none" d="M 21.484375 -28.125 C 21.484375 -28.125 21.484375 -28.109375 21.484375 -28.078125 C 21.640625 -27.734375 21.550781 -27.445312 21.21875 -27.21875 C 20.882812 -26.988281 20.582031 -26.863281 20.3125 -26.84375 L 26.15625 -27.359375 C 25.84375 -27.328125 25.472656 -27.5 25.046875 -27.875 C 23.523438 -29.289062 21.78125 -30.359375 19.8125 -31.078125 C 17.851562 -31.796875 15.796875 -32.050781 13.640625 -31.84375 C 11.554688 -31.65625 9.640625 -31.0625 7.890625 -30.0625 C 6.148438 -29.0625 4.660156 -27.773438 3.421875 -26.203125 C 2.179688 -24.628906 1.257812 -22.84375 0.65625 -20.84375 C 0.0625 -18.84375 -0.128906 -16.75 0.078125 -14.5625 C 0.296875 -12.375 0.875 -10.351562 1.8125 -8.5 C 2.757812 -6.644531 3.992188 -5.050781 5.515625 -3.71875 C 7.035156 -2.382812 8.742188 -1.394531 10.640625 -0.75 C 12.535156 -0.113281 14.519531 0.109375 16.59375 -0.078125 C 18.570312 -0.265625 20.367188 -0.832031 21.984375 -1.78125 C 23.597656 -2.726562 24.800781 -3.851562 25.59375 -5.15625 L 25 -5.15625 C 24.4375 -4.25 23.675781 -3.460938 22.71875 -2.796875 C 21.757812 -2.128906 20.734375 -1.59375 19.640625 -1.1875 C 18.546875 -0.789062 17.519531 -0.539062 16.5625 -0.4375 C 15.0625 -0.300781 13.613281 -0.570312 12.21875 -1.25 C 10.820312 -1.9375 9.554688 -2.9375 8.421875 -4.25 C 7.285156 -5.570312 6.347656 -7.144531 5.609375 -8.96875 C 4.878906 -10.800781 4.410156 -12.785156 4.203125 -14.921875 C 4.015625 -17.054688 4.113281 -19.09375 4.5 -21.03125 C 4.882812 -22.976562 5.507812 -24.710938 6.375 -26.234375 C 7.25 -27.753906 8.304688 -28.972656 9.546875 -29.890625 C 10.785156 -30.816406 12.164062 -31.332031 13.6875 -31.4375 C 14.90625 -31.519531 16.046875 -31.414062 17.109375 -31.125 C 18.179688 -30.832031 19.101562 -30.425781 19.875 -29.90625 C 20.65625 -29.382812 21.191406 -28.789062 21.484375 -28.125 Z M 21.484375 -28.125 "/></g></g><g style="fill:#000000;fill-opacity:1;"><g transform="translate(29.08222, 35.74999)"><path style="stroke:none" d="M 15.15625 -31.921875 C 13.082031 -31.921875 11.128906 -31.503906 9.296875 -30.671875 C 7.472656 -29.847656 5.867188 -28.703125 4.484375 -27.234375 C 3.097656 -25.773438 2.007812 -24.082031 1.21875 -22.15625 C 0.4375 -20.238281 0.046875 -18.171875 0.046875 -15.953125 C 0.046875 -13.773438 0.4375 -11.71875 1.21875 -9.78125 C 2.007812 -7.84375 3.097656 -6.140625 4.484375 -4.671875 C 5.867188 -3.210938 7.472656 -2.066406 9.296875 -1.234375 C 11.128906 -0.410156 13.082031 0 15.15625 0 C 17.238281 0 19.191406 -0.410156 21.015625 -1.234375 C 22.847656 -2.066406 24.445312 -3.210938 25.8125 -4.671875 C 27.1875 -6.140625 28.265625 -7.84375 29.046875 -9.78125 C 29.835938 -11.71875 30.234375 -13.773438 30.234375 -15.953125 C 30.234375 -18.171875 29.835938 -20.238281 29.046875 -22.15625 C 28.265625 -24.082031 27.1875 -25.773438 25.8125 -27.234375 C 24.445312 -28.703125 22.847656 -29.847656 21.015625 -30.671875 C 19.191406 -31.503906 17.238281 -31.921875 15.15625 -31.921875 Z M 15.15625 -31.484375 C 16.675781 -31.484375 18.097656 -31.082031 19.421875 -30.28125 C 20.742188 -29.476562 21.90625 -28.363281 22.90625 -26.9375 C 23.90625 -25.507812 24.679688 -23.851562 25.234375 -21.96875 C 25.796875 -20.09375 26.078125 -18.078125 26.078125 -15.921875 C 26.078125 -13.785156 25.796875 -11.773438 25.234375 -9.890625 C 24.679688 -8.015625 23.90625 -6.363281 22.90625 -4.9375 C 21.90625 -3.507812 20.742188 -2.394531 19.421875 -1.59375 C 18.097656 -0.800781 16.675781 -0.40625 15.15625 -0.40625 C 13.632812 -0.40625 12.210938 -0.800781 10.890625 -1.59375 C 9.578125 -2.394531 8.410156 -3.507812 7.390625 -4.9375 C 6.378906 -6.363281 5.59375 -8.015625 5.03125 -9.890625 C 4.476562 -11.773438 4.203125 -13.785156 4.203125 -15.921875 C 4.203125 -18.078125 4.476562 -20.09375 5.03125 -21.96875 C 5.59375 -23.851562 6.378906 -25.507812 7.390625 -26.9375 C 8.410156 -28.363281 9.578125 -29.476562 10.890625 -30.28125 C 12.210938 -31.082031 13.632812 -31.484375 15.15625 -31.484375 Z M 15.15625 -31.484375 "/></g></g><g style="fill:#000000;fill-opacity:1;"><g transform="translate(61.279026, 35.74999)"><path style="stroke:none" d="M 7.125 0 C 6.71875 0 6.367188 -0.210938 6.078125 -0.640625 C 5.785156 -1.066406 5.640625 -1.613281 5.640625 -2.28125 L 5.640625 -11.921875 L 11.84375 -11.921875 C 12.507812 -11.515625 13.054688 -10.898438 13.484375 -10.078125 L 17.28125 -2.125 C 17.570312 -1.476562 17.65625 -0.96875 17.53125 -0.59375 C 17.414062 -0.226562 17.171875 -0.046875 16.796875 -0.046875 L 23.921875 -0.046875 C 23.492188 -0.046875 23.039062 -0.25 22.5625 -0.65625 C 22.082031 -1.070312 21.679688 -1.613281 21.359375 -2.28125 L 17.6875 -9.921875 C 17.332031 -10.503906 17.039062 -10.984375 16.8125 -11.359375 C 16.59375 -11.734375 16.132812 -11.988281 15.4375 -12.125 C 17.300781 -12.414062 18.832031 -13 20.03125 -13.875 C 21.238281 -14.757812 22.132812 -15.851562 22.71875 -17.15625 C 23.300781 -18.46875 23.59375 -19.882812 23.59375 -21.40625 C 23.625 -23.320312 23.289062 -25.070312 22.59375 -26.65625 C 21.90625 -28.25 20.785156 -29.515625 19.234375 -30.453125 C 17.691406 -31.398438 15.613281 -31.875 13 -31.875 L 0 -31.875 C 0.394531 -31.875 0.734375 -31.679688 1.015625 -31.296875 C 1.296875 -30.910156 1.453125 -30.410156 1.484375 -29.796875 L 1.484375 -2.078125 C 1.453125 -1.460938 1.296875 -0.960938 1.015625 -0.578125 C 0.734375 -0.191406 0.394531 0 0 0 Z M 9.515625 -31.515625 C 11.273438 -31.515625 12.734375 -31.296875 13.890625 -30.859375 C 15.054688 -30.421875 15.992188 -29.84375 16.703125 -29.125 C 17.410156 -28.40625 17.941406 -27.632812 18.296875 -26.8125 C 18.660156 -26 18.898438 -25.207031 19.015625 -24.4375 C 19.140625 -23.664062 19.191406 -23 19.171875 -22.4375 C 19.160156 -21.875 19.15625 -21.515625 19.15625 -21.359375 C 19.15625 -21.066406 19.128906 -20.570312 19.078125 -19.875 C 19.023438 -19.1875 18.859375 -18.414062 18.578125 -17.5625 C 18.296875 -16.707031 17.828125 -15.882812 17.171875 -15.09375 C 16.523438 -14.3125 15.613281 -13.648438 14.4375 -13.109375 C 13.269531 -12.578125 11.765625 -12.300781 9.921875 -12.28125 L 5.640625 -12.28125 L 5.640625 -29.640625 C 5.640625 -30.460938 5.851562 -31.085938 6.28125 -31.515625 Z M 9.515625 -31.515625 "/></g></g><g style="fill:#000000;fill-opacity:1;"><g transform="translate(86.876482, 35.74999)"><path style="stroke:none" d="M 22.046875 -31.875 L 0 -31.875 C 0.375 -31.875 0.707031 -31.679688 1 -31.296875 C 1.289062 -30.910156 1.453125 -30.410156 1.484375 -29.796875 L 1.484375 -2.078125 C 1.453125 -1.460938 1.289062 -0.960938 1 -0.578125 C 0.707031 -0.191406 0.375 0 0 0 L 22.078125 0 L 22.078125 -4.4375 C 22.078125 -4.4375 22.023438 -4.265625 21.921875 -3.921875 C 21.816406 -3.578125 21.539062 -3.160156 21.09375 -2.671875 C 20.65625 -2.191406 19.957031 -1.738281 19 -1.3125 C 18.039062 -0.894531 16.691406 -0.59375 14.953125 -0.40625 L 6.234375 -0.40625 C 6.046875 -0.59375 5.890625 -0.84375 5.765625 -1.15625 C 5.648438 -1.476562 5.59375 -1.835938 5.59375 -2.234375 L 5.59375 -15.953125 L 10.125 -15.953125 C 11.21875 -15.773438 12.015625 -15.519531 12.515625 -15.1875 C 13.023438 -14.851562 13.351562 -14.550781 13.5 -14.28125 C 13.644531 -14.007812 13.71875 -13.875 13.71875 -13.875 L 13.71875 -18.40625 C 13.71875 -18.40625 13.644531 -18.269531 13.5 -18 C 13.351562 -17.726562 13.023438 -17.425781 12.515625 -17.09375 C 12.015625 -16.757812 11.21875 -16.5 10.125 -16.3125 L 5.59375 -16.3125 L 5.59375 -29.59375 C 5.59375 -30.425781 5.820312 -31.066406 6.28125 -31.515625 L 14.921875 -31.515625 C 16.648438 -31.328125 18 -31.019531 18.96875 -30.59375 C 19.945312 -30.164062 20.65625 -29.710938 21.09375 -29.234375 C 21.539062 -28.753906 21.816406 -28.34375 21.921875 -28 C 22.023438 -27.65625 22.078125 -27.484375 22.078125 -27.484375 L 22.078125 -31.875 Z M 22.046875 -31.875 "/></g></g><g style="fill:#000000;fill-opacity:1;"><g transform="translate(52.032773, 74.749988)"><path style="stroke:none" d="M 7.4375 -31.84375 L 0.046875 -31.84375 C 0.441406 -31.84375 0.785156 -31.632812 1.078125 -31.21875 C 1.367188 -30.800781 1.515625 -30.257812 1.515625 -29.59375 L 1.515625 -2.234375 C 1.515625 -1.566406 1.367188 -1.019531 1.078125 -0.59375 C 0.785156 -0.164062 0.425781 0.046875 0 0.046875 L 3.953125 0.046875 C 3.554688 0.046875 3.21875 -0.144531 2.9375 -0.53125 C 2.65625 -0.925781 2.503906 -1.429688 2.484375 -2.046875 L 2.484375 -29.765625 C 2.484375 -29.765625 2.484375 -29.773438 2.484375 -29.796875 L 2.484375 -29.765625 L 12.3125 0.046875 L 13.765625 0 L 23.3125 -29.640625 L 23.3125 -2.078125 C 23.289062 -1.441406 23.132812 -0.9375 22.84375 -0.5625 C 22.550781 -0.1875 22.21875 0 21.84375 0 L 28.953125 0 C 28.523438 0 28.164062 -0.203125 27.875 -0.609375 C 27.582031 -1.023438 27.4375 -1.566406 27.4375 -2.234375 L 27.4375 -29.59375 C 27.4375 -30.289062 27.582031 -30.835938 27.875 -31.234375 C 28.164062 -31.640625 28.523438 -31.84375 28.953125 -31.84375 L 21.5625 -31.84375 C 21.988281 -31.84375 22.28125 -31.632812 22.4375 -31.21875 C 22.601562 -30.800781 22.578125 -30.257812 22.359375 -29.59375 L 14.59375 -5.5625 L 6.6875 -29.59375 C 6.46875 -30.289062 6.429688 -30.835938 6.578125 -31.234375 C 6.722656 -31.640625 7.007812 -31.84375 7.4375 -31.84375 Z M 7.4375 -31.84375 "/></g></g><g style="fill:#000000;fill-opacity:1;"><g transform="translate(83.029689, 74.749988)"><path style="stroke:none" d="M 0 -31.875 C 0.375 -31.875 0.707031 -31.679688 1 -31.296875 C 1.289062 -30.910156 1.453125 -30.410156 1.484375 -29.796875 L 1.484375 -2.078125 C 1.453125 -1.460938 1.289062 -0.960938 1 -0.578125 C 0.707031 -0.191406 0.375 0 0 0 L 7.078125 0 C 6.679688 0 6.332031 -0.203125 6.03125 -0.609375 C 5.738281 -1.023438 5.59375 -1.566406 5.59375 -2.234375 L 5.59375 -29.59375 C 5.59375 -30.289062 5.738281 -30.84375 6.03125 -31.25 C 6.332031 -31.664062 6.679688 -31.875 7.078125 -31.875 Z M 0 -31.875 "/></g></g><g style="fill:#000000;fill-opacity:1;"><g transform="translate(92.148787, 74.749988)"><path style="stroke:none" d="M 7.15625 -31.875 L 0.078125 -31.875 C 0.109375 -31.875 0.125 -31.875 0.125 -31.875 C 0.125 -31.875 0.132812 -31.875 0.15625 -31.875 L 0.046875 -31.875 C 0.441406 -31.875 0.785156 -31.664062 1.078125 -31.25 C 1.367188 -30.84375 1.515625 -30.304688 1.515625 -29.640625 L 1.484375 -2.28125 C 1.484375 -1.613281 1.34375 -1.066406 1.0625 -0.640625 C 0.78125 -0.210938 0.425781 0 0 0 L 3.921875 0 C 3.546875 0 3.21875 -0.191406 2.9375 -0.578125 C 2.65625 -0.960938 2.488281 -1.460938 2.4375 -2.078125 L 2.484375 -29.796875 C 2.484375 -29.828125 2.484375 -29.847656 2.484375 -29.859375 C 2.484375 -29.867188 2.484375 -29.890625 2.484375 -29.921875 C 2.484375 -29.890625 2.507812 -29.847656 2.5625 -29.796875 L 15.765625 -2.125 C 16.054688 -1.476562 16.140625 -0.96875 16.015625 -0.59375 C 15.898438 -0.226562 15.65625 -0.046875 15.28125 -0.046875 L 22.359375 0 C 21.742188 0 21.351562 -0.210938 21.1875 -0.640625 C 21.03125 -1.066406 20.925781 -1.546875 20.875 -2.078125 L 20.921875 -29.796875 C 20.941406 -30.410156 21.09375 -30.910156 21.375 -31.296875 C 21.65625 -31.679688 22 -31.875 22.40625 -31.875 L 18.484375 -31.875 C 18.878906 -31.875 19.222656 -31.664062 19.515625 -31.25 C 19.804688 -30.84375 19.953125 -30.304688 19.953125 -29.640625 L 19.921875 -2.28125 C 19.921875 -2.25 19.921875 -2.210938 19.921875 -2.171875 C 19.921875 -2.140625 19.921875 -2.097656 19.921875 -2.046875 C 19.890625 -2.097656 19.867188 -2.140625 19.859375 -2.171875 C 19.847656 -2.210938 19.828125 -2.25 19.796875 -2.28125 L 6.765625 -29.640625 C 6.441406 -30.335938 6.328125 -30.882812 6.421875 -31.28125 C 6.515625 -31.675781 6.757812 -31.875 7.15625 -31.875 Z M 7.15625 -31.875 "/></g></g><g style="fill:#000000;fill-opacity:1;"><g transform="translate(116.546365, 74.749988)"><path style="stroke:none" d="M 8.59375 0 C 11.257812 0 13.503906 -0.359375 15.328125 -1.078125 C 17.160156 -1.796875 18.644531 -2.753906 19.78125 -3.953125 C 20.914062 -5.160156 21.78125 -6.476562 22.375 -7.90625 C 22.976562 -9.332031 23.378906 -10.753906 23.578125 -12.171875 C 23.773438 -13.597656 23.875 -14.890625 23.875 -16.046875 C 23.875 -17.078125 23.757812 -18.28125 23.53125 -19.65625 C 23.3125 -21.03125 22.894531 -22.429688 22.28125 -23.859375 C 21.664062 -25.285156 20.789062 -26.601562 19.65625 -27.8125 C 18.519531 -29.03125 17.050781 -30.007812 15.25 -30.75 C 13.457031 -31.5 11.253906 -31.875 8.640625 -31.875 L 0 -31.875 C 0.375 -31.875 0.707031 -31.679688 1 -31.296875 C 1.289062 -30.910156 1.453125 -30.410156 1.484375 -29.796875 L 1.484375 -2.078125 C 1.453125 -1.460938 1.289062 -0.960938 1 -0.578125 C 0.707031 -0.191406 0.375 0 0 0 Z M 6.234375 -31.515625 L 6.59375 -31.515625 C 8.945312 -31.492188 10.894531 -31.140625 12.4375 -30.453125 C 13.988281 -29.773438 15.234375 -28.890625 16.171875 -27.796875 C 17.117188 -26.703125 17.828125 -25.53125 18.296875 -24.28125 C 18.765625 -23.03125 19.078125 -21.820312 19.234375 -20.65625 C 19.398438 -19.5 19.484375 -18.5 19.484375 -17.65625 C 19.484375 -16.820312 19.484375 -16.285156 19.484375 -16.046875 C 19.484375 -15.828125 19.46875 -15.300781 19.4375 -14.46875 C 19.414062 -13.644531 19.300781 -12.644531 19.09375 -11.46875 C 18.894531 -10.300781 18.535156 -9.085938 18.015625 -7.828125 C 17.492188 -6.578125 16.742188 -5.390625 15.765625 -4.265625 C 14.796875 -3.148438 13.539062 -2.238281 12 -1.53125 C 10.457031 -0.832031 8.535156 -0.457031 6.234375 -0.40625 C 6.046875 -0.59375 5.890625 -0.84375 5.765625 -1.15625 C 5.648438 -1.476562 5.59375 -1.851562 5.59375 -2.28125 L 5.59375 -29.640625 C 5.59375 -30.035156 5.648438 -30.398438 5.765625 -30.734375 C 5.890625 -31.066406 6.046875 -31.328125 6.234375 -31.515625 Z M 6.234375 -31.515625 "/></g></g></g></svg>